<?xml version="1.0" encoding="utf-8"?>
<!-- Generator: Adobe Illustrator 27.9.0, SVG Export Plug-In . SVG Version: 6.00 Build 0)  -->
<svg version="1.1" id="Layer_1" xmlns="http://www.w3.org/2000/svg" xmlns:xlink="http://www.w3.org/1999/xlink" x="0px" y="0px"
	 viewBox="0 0 841.89 595.28" style="enable-background:new 0 0 841.89 595.28;" xml:space="preserve">
<style type="text/css">
	.st0{fill:#414142;}
	.st1{fill:#FFFFFF;}
	.st2{fill:#29B574;}
	.st3{fill:#A2D8CB;}
	.st4{fill:#BA334D;}
	.st5{fill:#F5BA3D;}
	.st6{fill:#A967AA;}
	.st7{fill:#406325;}
	.st8{fill:#8299CE;}
	.st9{fill:#EB7925;}
	.st10{fill:#E8E319;}
	.st11{fill:#5DB847;}
	.st12{fill:#508CCA;}
	.st13{fill:#70C7E7;}
	.st14{fill:#DA74AC;}
	.st15{fill:#924F9F;}
	.st16{fill:#E8B7CD;}
</style>
<g>
	<g>
		<g>
			<path class="st0" d="M390.56,364.09c0.16,4.83-1.62,9.78,1.53,14.31c-4.6,0-9.11,0-13.01,0c0.37-2.45,0.99-4.83,1.03-7.23
				c0.14-6.94,0.15-13.88-0.01-20.83c-0.06-2.54-0.73-5.08-1.08-7.4c6,0,12.62-0.33,19.18,0.13c3.72,0.26,6.64,2.6,7.5,6.67
				c0.92,4.34-0.75,7.58-4.26,10.03c-0.55,0.39-1.12,0.75-1.78,1.2c3.52,5.75,5.98,12.1,11.36,17c0.87-1.41,1.88-2.58,2.38-3.93
				c3.13-8.48,6.24-16.97,9.17-25.52c0.92-2.68,0.6-3.11-1.34-5.98c4.21,0,8.22-0.08,12.21,0.09c0.53,0.02,1.21,1.19,1.49,1.95
				c2.82,7.63,5.48,15.32,8.38,22.93c1.41,3.71,3.19,7.28,4.78,10.85c-4.58,0-9.7,0-15.08,0c3.72-3.78,0.74-7.16-0.33-10.79
				c-3.16,0-6.2-0.02-9.25,0.02c-0.48,0.01-1.13,0.14-1.41,0.46c-1.88,2.09-2.24,7.78-0.53,10.47c-3.26,0-6.34-0.01-9.42,0
				c-3.03,0.01-6.07-0.11-9.08,0.12c-3.08,0.24-5.11-0.95-6.48-3.62c-1.6-3.12-3.28-6.19-4.93-9.27
				C391.25,365.18,390.89,364.64,390.56,364.09z M390.29,348.11c0,3.91,0,7.83,0,11.76c3.4-0.4,5.98-3.62,5.69-7.03
				C395.7,349.53,393.98,348.08,390.29,348.11z M430.85,362.45c-1.22-3.46-2.34-6.64-3.68-10.46c-1.28,3.88-2.34,7.09-3.45,10.46
				C426.15,362.45,428.34,362.45,430.85,362.45z"/>
			<path class="st0" d="M344.29,378.42c-3.25,0-7.04,0-11.06,0c-0.08-1.1-0.17-2.21-0.26-3.36c-1.81,1.16-3.41,2.71-5.32,3.3
				c-7.22,2.22-13.75-0.16-14.38-9.77c-0.3-4.55,0.04-9.14,0.22-13.71c0.17-4.13,0.47-8.24-2.12-12.14c4.59,0,9.09,0,13.88,0
				c-2.6,2.88-2.01,6.35-2.02,9.71c-0.03,4.5-0.04,9,0.02,13.51c0.01,1.21,0.16,2.44,0.47,3.6c0.46,1.71,1.41,3.04,3.42,3.17
				c2.08,0.14,3.85-0.44,4.71-2.47c0.53-1.24,0.98-2.62,1.01-3.94c0.14-6.1,0.21-12.21,0.08-18.3c-0.04-1.73-0.84-3.43-1.33-5.27
				c4.13,0,8.69,0,13.49,0c-2.28,2.51-2.14,5.55-2.13,8.57c0.01,6.72-0.1,13.43,0.06,20.14
				C343.11,373.78,343.85,376.08,344.29,378.42z"/>
			<path class="st0" d="M558.04,378.45c-4.72,0-9.81,0-15.25,0c3.45-3.47,1.29-6.73,0.01-9.98c-0.17-0.43-0.98-0.82-1.52-0.86
				c-1.52-0.12-3.06-0.15-4.57-0.01c-1.69,0.16-4.54,0.1-4.84,0.9c-1.14,3.05-3.87,6.28-0.4,9.87c-3.69,0-7.07,0-10.75,0
				c0.76-1.25,1.69-2.36,2.16-3.63c3.28-8.9,6.59-17.8,9.59-26.79c0.51-1.51-0.42-3.49-0.71-5.43c3.44,0,7.38-0.07,11.31,0.08
				c0.56,0.02,1.33,1.06,1.6,1.77c3.02,8.12,5.89,16.3,8.97,24.4C554.89,372.06,556.55,375.2,558.04,378.45z M537.04,351.94
				c-1.27,3.88-2.35,7.15-3.45,10.49c2.46,0,4.64,0,7.09,0C539.51,359.04,538.4,355.84,537.04,351.94z"/>
			<path class="st0" d="M501.27,378.44c-4.72,0-9.81,0-15.26,0c3.66-3.57,1.17-6.88-0.03-10.19c-0.13-0.36-0.94-0.64-1.45-0.66
				c-2.67-0.06-5.34-0.05-8.02-0.01c-0.48,0.01-1.12,0.15-1.41,0.47c-1.87,2.13-2.21,7.74-0.62,10.33c-3.47,0-6.85,0-10.46,0
				c0.92-1.6,2.03-3.06,2.64-4.71c3.08-8.34,6.07-16.71,9.01-25.1c0.71-2.04,0.58-4.06-1.75-6.04c4.6,0,8.61-0.06,12.6,0.08
				c0.5,0.02,1.16,1.05,1.41,1.73c2.87,7.78,5.59,15.61,8.53,23.36C497.87,371.36,499.65,374.85,501.27,378.44z M480.56,352.7
				c-0.17-0.02-0.33-0.03-0.5-0.05c-1.06,3.23-2.12,6.45-3.22,9.81c2.46,0,4.65,0,7.1,0C482.78,359.1,481.67,355.9,480.56,352.7z"/>
			<path class="st0" d="M284.13,342.19c6.17,0.36,12.73,0.4,19.18,1.25c4.91,0.64,7.18,3.58,7.53,7.87
				c0.4,4.93-1.62,8.74-6.07,10.42c-2.54,0.95-5.34,1.19-8.17,1.78c1.51-2.21,3.21-3.83,3.74-5.77c0.56-1.99,0.29-4.37-0.19-6.46
				c-0.48-2.11-2.3-3.03-4.78-3.11c0,1.36,0,2.56,0,3.75c0,5.87,0.01,11.75,0,17.62c0,3.05,0.01,6.09,2.32,8.83
				c-4.83,0-9.33,0-14.14,0c2.07-2.3,2.1-4.94,2.1-7.61c-0.02-7.02,0.1-14.04-0.07-21.05C285.52,347.4,284.71,345.1,284.13,342.19z"
				/>
			<path class="st0" d="M505.02,378.33c0.39-2.32,0.86-4.56,1.14-6.83c0.78-6.35-0.64-12.13-4.18-17.53
				c-2.36-3.6-4.25-7.5-6.43-11.42c3.52,0,7.37-0.05,11.21,0.06c0.43,0.01,0.95,0.86,1.24,1.43c1.84,3.67,3.63,7.37,5.45,11.08
				c3.49-3.78,4.96-9.35,3.14-12.4c3.08,0,6.05,0,9.27,0c-0.29,0.74-0.48,1.36-0.77,1.95c-1.86,3.75-3.43,7.69-5.68,11.2
				c-3.62,5.63-3.34,11.71-2.78,17.86c0.14,1.52,1,2.97,1.58,4.61C513.73,378.33,509.15,378.33,505.02,378.33z"/>
			<path class="st0" d="M355.85,348.25c-3.18,0.64-5.94,1.2-8.81,1.78c0.56-2.28,1.21-4.89,1.85-7.46c8.71,0,17.23,0,26.08,0
				c-0.59,2.73-1.14,5.27-1.76,8.11c-2.08-2.38-4.42-2.56-7.37-1.67c0.9,9.67-1.39,19.58,1.67,29.33c-4.15,0-8.72,0-12.73,0
				c0.35-2.43,0.97-4.89,1.02-7.36C355.94,363.68,355.85,356.38,355.85,348.25z"/>
			<path class="st0" d="M447.06,389.68c4.25-5.57,4.22-11.74,4.17-17.95c-0.07-7.4,0.08-14.8-0.07-22.2
				c-0.05-2.25-0.75-4.49-1.18-6.83c4.03,0,8.6,0,13.54,0c-2.25,2.1-2.1,4.63-2.1,7.12c-0.01,8.77,0.05,17.55-0.03,26.32
				C461.32,384.02,455.2,389.96,447.06,389.68z"/>
		</g>
		<g>
			<path class="st0" d="M301.3,509.35h52.04v15.13h-34.7v7.56h34.7v13.67h-34.7v7.56h34.7v15.17H301.3V509.35z"/>
			<path class="st0" d="M399.8,509.35h21.67l-23.32,29.55l23.32,29.55H399.8l-12.47-17.28l-12.47,17.28h-21.7l23.32-29.55
				l-23.32-29.55h21.7l12.47,17.24L399.8,509.35z"/>
			<path class="st0" d="M463.97,509.35c9.16-0.13,16.94,10.11,16.81,22.34c0.13,12.18-7.65,22.51-16.81,22.34h-25.51v14.42h-17.33
				v-59.1L463.97,509.35L463.97,509.35z M459.64,536.7c1.03,0,1.92-0.48,2.65-1.45c0.76-1.01,1.12-2.2,1.12-3.56
				c0-1.41-0.36-2.6-1.12-3.56c-0.73-1.01-1.62-1.49-2.65-1.49h-21.17v10.07L459.64,536.7L459.64,536.7z"/>
			<path class="st0" d="M540.3,536.66v4.3c0.06,22.34-13.63,28.8-30.34,28.84c-16.74-0.05-30.44-6.51-30.37-28.84v-4.31
				c-0.06-22.38,13.63-28.8,30.37-28.85C526.7,507.81,540.3,514.32,540.3,536.66z M522.97,538.06c0.1-9.63-5.93-11.39-13-11.52
				c-7.11,0.13-13.14,1.89-13.03,11.52v1.45c-0.1,9.68,5.93,11.43,13.03,11.57c7.08-0.13,13.1-1.89,13-11.57V538.06z"/>
		</g>
		<g>
			<path class="st0" d="M178.33,432.91c19.71,1.32,47.41,3.14,47.36,26.68c0,26.82-23.12,33.18-47.93,33.18
				c-24.75-0.07-45.31-4.05-47.93-33.18h28.85c3.15,7.26,10.46,9.15,19.08,9.15c8.57,0,19.08-1.89,19.08-9.15
				c0-4.12-8.57-4.75-19.66-5.45c-19.71-1.33-47.41-3.14-47.36-26.62c0-26.82,23.12-33.25,47.93-33.25
				c24.75,0.21,45.31,3.91,47.93,33.25h-28.85c-3.15-7.4-10.46-9.15-19.08-9.15c-8.57,0-19.08,1.67-19.08,9.15
				C158.67,431.65,167.24,432.2,178.33,432.91z"/>
			<path class="st0" d="M297.71,396.72c14.56-0.21,26.91,16.06,26.7,35.48c0.21,19.35-12.14,35.76-26.7,35.48h-40.52v22.91h-27.54
				v-93.87H297.71z M290.82,440.17c1.63,0,3.05-0.77,4.21-2.3c1.21-1.6,1.78-3.49,1.78-5.66c0-2.23-0.58-4.12-1.78-5.66
				c-1.16-1.6-2.58-2.38-4.21-2.38h-33.64v16L290.82,440.17L290.82,440.17z"/>
			<path class="st0" d="M421.58,440.1v6.85c0.1,35.48-21.66,45.75-48.2,45.82c-26.6-0.07-48.36-10.34-48.25-45.82v-6.85
				c-0.1-35.55,21.66-45.75,48.25-45.82C399.98,394.28,421.58,404.62,421.58,440.1z M394.04,442.34c0.16-15.3-9.41-18.09-20.66-18.3
				c-11.3,0.21-20.87,3-20.71,18.3v2.3c-0.16,15.37,9.41,18.16,20.71,18.37c11.25-0.21,20.81-3,20.66-18.37V442.34z"/>
			<path class="st0" d="M490.89,396.65c14.56-0.21,26.91,16.06,26.7,35.48c0,7.05-1.42,13.48-4.26,19.21
				c-2.78,5.66-6.52,9.99-11.14,12.85l15.4,26.33h-29.33l-13.3-22.91h-24.6v22.91h-27.54v-93.87H490.89z M450.36,424.1v16h33.59
				c1.68,0,3.1-0.77,4.26-2.3c1.21-1.61,1.78-3.49,1.78-5.66c0-4.47-2.68-8.03-6.04-8.03L450.36,424.1L450.36,424.1z"/>
			<path class="st0" d="M553.77,490.6v-64.12h-32.74v-29.76h93.03v29.76h-32.74v64.12H553.77z"/>
			<path class="st0" d="M664.42,432.91c19.71,1.32,47.41,3.14,47.36,26.68c0,26.82-23.12,33.18-47.93,33.18
				c-24.75-0.07-45.31-4.05-47.93-33.18h28.85c3.15,7.26,10.46,9.15,19.08,9.15c8.57,0,19.08-1.89,19.08-9.15
				c0-4.12-8.57-4.75-19.66-5.45c-19.71-1.33-47.41-3.14-47.36-26.62c0-26.82,23.12-33.25,47.93-33.25
				c24.75,0.21,45.31,3.91,47.93,33.25h-28.85c-3.15-7.4-10.46-9.15-19.08-9.15c-8.57,0-19.08,1.67-19.08,9.15
				C644.76,431.65,653.33,432.2,664.42,432.91z"/>
		</g>
		<g>
			<g>
				<g>
					<path class="st0" d="M157.36,544.72h-3.72V528.9h-5.31v-3.14h14.36v3.14h-5.32L157.36,544.72L157.36,544.72z"/>
					<path class="st0" d="M184.17,536.47c0,1.78-0.32,3.31-0.96,4.6s-1.56,2.28-2.75,2.97c-1.19,0.69-2.63,1.03-4.3,1.03
						c-1.67,0-3.1-0.34-4.3-1.03s-2.12-1.68-2.76-2.97c-0.64-1.29-0.96-2.82-0.96-4.6v-2.43c0-1.8,0.32-3.34,0.96-4.63
						c0.64-1.29,1.56-2.28,2.76-2.97c1.2-0.69,2.63-1.03,4.3-1.03c1.67,0,3.11,0.34,4.3,1.04c1.19,0.69,2.11,1.69,2.75,2.98
						c0.64,1.29,0.96,2.83,0.96,4.61V536.47z M180.42,534.01c0-1.22-0.18-2.24-0.55-3.05c-0.36-0.81-0.87-1.42-1.51-1.82
						c-0.64-0.41-1.37-0.61-2.19-0.61c-0.83,0-1.56,0.2-2.2,0.61c-0.64,0.41-1.14,1.02-1.51,1.82c-0.36,0.81-0.55,1.82-0.55,3.05
						v2.47c0,1.21,0.18,2.23,0.55,3.04c0.36,0.81,0.87,1.42,1.51,1.82c0.64,0.4,1.37,0.6,2.2,0.6c0.82,0,1.56-0.2,2.19-0.6
						c0.64-0.4,1.14-1.01,1.51-1.82c0.36-0.81,0.55-1.83,0.55-3.04V534.01z"/>
					<path class="st0" d="M197.3,541.88c1.16,0,2.08-0.35,2.78-1.06c0.71-0.7,1.06-1.71,1.06-3.01v-12.05h3.72v12.42
						c0,1.38-0.31,2.59-0.93,3.63c-0.62,1.04-1.5,1.85-2.63,2.41c-1.13,0.57-2.47,0.86-4,0.86c-1.53,0-2.88-0.29-4-0.86
						c-1.14-0.57-2.01-1.38-2.63-2.41c-0.62-1.04-0.93-2.25-0.93-3.63v-12.42h3.72v12.05c0,1.32,0.35,2.32,1.06,3.02
						C195.21,541.54,196.14,541.88,197.3,541.88z"/>
					<path class="st0" d="M219.6,525.77c1.39,0,2.58,0.25,3.56,0.74c0.98,0.49,1.73,1.19,2.25,2.09c0.52,0.9,0.77,1.95,0.77,3.17
						c0,0.93-0.16,1.75-0.49,2.47c-0.33,0.72-0.75,1.32-1.28,1.79c-0.52,0.47-1.06,0.83-1.64,1.06l3.76,7.64h-4.15l-3.28-7.07h-3.32
						v7.07h-3.67v-18.95L219.6,525.77L219.6,525.77z M215.79,534.84h3.23c1.03,0,1.84-0.25,2.43-0.75c0.6-0.5,0.9-1.25,0.9-2.25
						c0-1.01-0.31-1.78-0.91-2.32c-0.6-0.54-1.4-0.8-2.38-0.8h-3.28L215.79,534.84L215.79,534.84z"/>
					<path class="st0" d="M234.71,544.72h-3.71v-18.95h3.71V544.72z"/>
					<path class="st0" d="M241.04,539.55h3.58c0.06,0.36,0.19,0.69,0.4,1.01c0.2,0.31,0.47,0.58,0.8,0.81
						c0.33,0.23,0.72,0.41,1.17,0.55c0.45,0.13,0.95,0.19,1.49,0.19c0.77,0,1.41-0.11,1.94-0.33c0.53-0.22,0.92-0.53,1.19-0.92
						c0.27-0.4,0.4-0.85,0.4-1.37c0-0.66-0.24-1.17-0.71-1.55s-1.2-0.67-2.17-0.91l-2.89-0.68c-0.97-0.22-1.81-0.56-2.52-1.01
						c-0.71-0.45-1.27-1.03-1.65-1.74c-0.38-0.7-0.58-1.53-0.58-2.49c0-1.16,0.3-2.17,0.89-3.02c0.6-0.86,1.41-1.53,2.47-2
						c1.06-0.47,2.26-0.71,3.63-0.71c1.43,0,2.65,0.24,3.65,0.72c1.01,0.48,1.79,1.13,2.35,1.93c0.55,0.81,0.86,1.71,0.93,2.69
						h-3.51c-0.08-0.45-0.27-0.86-0.56-1.22c-0.29-0.36-0.67-0.65-1.16-0.86c-0.49-0.21-1.06-0.32-1.73-0.32
						c-1.01,0-1.82,0.24-2.39,0.71c-0.58,0.47-0.87,1.08-0.87,1.82c0,0.57,0.23,1.04,0.67,1.41c0.45,0.37,1.08,0.65,1.9,0.83
						l2.91,0.68c1.01,0.23,1.9,0.56,2.65,0.99c0.75,0.43,1.34,1,1.76,1.7s0.63,1.59,0.63,2.65c0,1.17-0.29,2.21-0.87,3.1
						c-0.58,0.9-1.42,1.59-2.52,2.09c-1.1,0.5-2.45,0.75-4.03,0.75c-1.19,0-2.23-0.14-3.12-0.43c-0.89-0.29-1.63-0.69-2.23-1.2
						c-0.6-0.51-1.05-1.1-1.36-1.77S241.07,540.3,241.04,539.55z"/>
					<path class="st0" d="M265.6,544.72h-3.3v-18.95h3.77l5.34,12.3h0.12l5.34-12.3h3.74v18.95h-3.35v-12.61h-0.18l-4.43,10.23
						h-2.41l-4.46-10.23h-0.18v12.61H265.6z"/>
				</g>
				<g>
					<path class="st0" d="M597.15,544.13h-3.48v-17.8h11.21v2.91h-7.73v4.96h7.06v2.84h-7.06L597.15,544.13L597.15,544.13z"/>
					<path class="st0" d="M624.19,536.38c0,1.67-0.3,3.11-0.9,4.32c-0.6,1.21-1.46,2.14-2.58,2.79c-1.12,0.65-2.47,0.97-4.04,0.97
						c-1.56,0-2.91-0.32-4.04-0.97c-1.13-0.65-2-1.58-2.6-2.79c-0.6-1.21-0.9-2.65-0.9-4.32v-2.28c0-1.69,0.3-3.13,0.9-4.35
						c0.6-1.21,1.47-2.14,2.6-2.79c1.13-0.65,2.48-0.97,4.04-0.97c1.57,0,2.92,0.32,4.04,0.98c1.12,0.66,1.98,1.58,2.58,2.8
						s0.9,2.66,0.9,4.34V536.38z M620.66,534.08c0-1.15-0.18-2.1-0.51-2.86c-0.34-0.76-0.82-1.33-1.41-1.71
						c-0.6-0.38-1.29-0.57-2.06-0.57c-0.78,0-1.47,0.19-2.07,0.57s-1.07,0.95-1.41,1.71c-0.34,0.76-0.51,1.71-0.51,2.86v2.32
						c0,1.14,0.17,2.09,0.51,2.86c0.34,0.77,0.81,1.34,1.41,1.71s1.28,0.56,2.07,0.56c0.77,0,1.46-0.19,2.06-0.56
						c0.6-0.38,1.07-0.95,1.41-1.71c0.34-0.77,0.51-1.71,0.51-2.86V534.08z"/>
					<path class="st0" d="M636.63,526.33c1.3,0,2.42,0.23,3.34,0.69c0.92,0.47,1.62,1.12,2.11,1.96c0.49,0.84,0.73,1.84,0.73,2.97
						c0,0.87-0.16,1.64-0.47,2.32s-0.71,1.23-1.2,1.68c-0.49,0.45-1,0.78-1.53,1l3.53,7.17h-3.89l-3.08-6.64h-3.12v6.64h-3.44v-17.8
						L636.63,526.33L636.63,526.33z M633.05,534.84h3.03c0.96,0,1.73-0.23,2.29-0.7c0.56-0.47,0.84-1.17,0.84-2.11
						c0-0.95-0.29-1.67-0.85-2.18c-0.56-0.51-1.31-0.76-2.23-0.76h-3.08L633.05,534.84L633.05,534.84z"/>
					<path class="st0" d="M656.04,541.47c1.08,0,1.95-0.33,2.62-0.99s0.99-1.6,0.99-2.83v-11.32h3.49v11.66
						c0,1.3-0.29,2.43-0.88,3.41c-0.58,0.98-1.41,1.73-2.47,2.27c-1.06,0.53-2.31,0.8-3.76,0.8c-1.44,0-2.7-0.27-3.76-0.8
						c-1.06-0.53-1.89-1.29-2.47-2.27s-0.88-2.12-0.88-3.41v-11.66h3.49v11.32c0,1.23,0.33,2.18,0.99,2.84
						C654.08,541.14,654.95,541.47,656.04,541.47z"/>
					<path class="st0" d="M673.1,544.13H670v-17.8h3.54l5.01,11.55h0.12l5.02-11.55h3.52v17.8h-3.14v-11.84h-0.17l-4.16,9.61h-2.27
						l-4.19-9.61h-0.17L673.1,544.13L673.1,544.13z"/>
				</g>
				<circle class="st0" cx="567.86" cy="534.24" r="13.56"/>
			</g>
			<path class="st1" d="M571.39,540.77c-0.06-0.06-0.13-0.15-0.21-0.25c-0.08-0.1-0.18-0.21-0.27-0.32
				c-0.1-0.11-0.19-0.22-0.27-0.32c-0.08-0.1-0.16-0.19-0.21-0.25c-0.48,0.49-1.04,0.85-1.7,1.08c-0.65,0.23-1.32,0.35-2.02,0.35
				c-0.82,0-1.54-0.16-2.16-0.47s-1.12-0.75-1.47-1.32s-0.53-1.25-0.53-2.04c0-0.58,0.1-1.1,0.29-1.54
				c0.19-0.44,0.46-0.84,0.79-1.18c0.34-0.34,0.72-0.65,1.16-0.93c0.09-0.05,0.18-0.1,0.27-0.16c0.09-0.05,0.18-0.1,0.27-0.15
				c-0.42-0.49-0.77-0.97-1.05-1.47c-0.29-0.49-0.43-1.04-0.43-1.64s0.15-1.14,0.44-1.62c0.29-0.47,0.69-0.84,1.19-1.12
				c0.5-0.27,1.07-0.41,1.69-0.41c0.58,0,1.11,0.12,1.61,0.36c0.5,0.24,0.9,0.59,1.21,1.06c0.31,0.46,0.46,1.03,0.46,1.69
				c0,0.57-0.12,1.08-0.35,1.51c-0.23,0.43-0.53,0.8-0.9,1.13c-0.37,0.32-0.77,0.62-1.2,0.88c0.15,0.18,0.32,0.4,0.54,0.66
				c0.21,0.26,0.43,0.53,0.66,0.82c0.23,0.29,0.45,0.56,0.66,0.82c0.21,0.26,0.39,0.48,0.54,0.66c0.16-0.34,0.28-0.75,0.34-1.23
				c0.06-0.48,0.1-1.02,0.1-1.6c0-0.1,0-0.21,0-0.32c0-0.11,0-0.22,0-0.34h1.91c0,0.14,0,0.27,0,0.4s0,0.26,0,0.4
				c0,0.83-0.08,1.62-0.24,2.36c-0.16,0.75-0.42,1.39-0.76,1.93l2.2,2.61L571.39,540.77L571.39,540.77z M566.05,534.82
				c-0.4,0.25-0.72,0.55-0.98,0.9c-0.26,0.34-0.39,0.78-0.39,1.3c0,0.47,0.1,0.87,0.31,1.19s0.48,0.56,0.82,0.71
				c0.34,0.16,0.71,0.24,1.12,0.24c0.4,0,0.8-0.08,1.23-0.24c0.43-0.16,0.79-0.42,1.06-0.76l-2.86-3.53
				c-0.06,0.03-0.12,0.06-0.18,0.1C566.16,534.75,566.11,534.78,566.05,534.82z M566.94,532.4c0.47-0.28,0.86-0.58,1.16-0.9
				c0.3-0.32,0.45-0.73,0.45-1.23c0-0.47-0.13-0.84-0.39-1.12c-0.26-0.28-0.58-0.42-0.98-0.42c-0.4,0-0.73,0.14-0.99,0.43
				c-0.26,0.29-0.39,0.66-0.39,1.1c0,0.32,0.08,0.64,0.25,0.95C566.22,531.54,566.51,531.93,566.94,532.4z"/>
		</g>
	</g>
	<g>
		<g>
			<path class="st2" d="M420.79,149.88c1.66-17.19,6.57-34.35,15.07-50.6c2.13-4.07,4.44-7.97,6.9-11.73
				c-2.23-22.8-10-43.97-21.95-62.16c-11.99,18.26-19.77,39.51-21.97,62.41c2.42,3.69,4.7,7.52,6.79,11.51
				C414.16,115.54,419.1,132.69,420.79,149.88z"/>
			<path class="st2" d="M408.37,153.19c-6.55-16.07-10.18-33.63-10.18-52.05c0-4.51,0.24-8.95,0.66-13.35
				c-12.59-19.25-29.36-34.45-48.46-45.04c-2.13,21.74,0.87,44.17,9.56,65.47c3.86,2.15,7.66,4.48,11.36,7.04
				C386.47,125.71,398.86,138.67,408.37,153.19z"/>
			<path class="st3" d="M408.37,153.19c4.93,7.53,9.1,15.47,12.45,23.71c-0.89-8.93-0.9-17.98-0.02-27.02
				c-1.69-17.19-6.63-34.34-15.15-50.58c-2.09-3.99-4.37-7.82-6.79-11.51c-0.42,4.39-0.66,8.84-0.66,13.35
				C398.18,119.56,401.82,137.12,408.37,153.19z"/>
			<path class="st2" d="M398.77,161.69c-13.27-11.18-24.65-25.04-33.21-41.35c-2.09-3.99-3.95-8.04-5.62-12.13
				c-20.09-11.19-42.01-16.86-63.84-17.35c8.22,20.24,21.3,38.71,38.89,53.52c4.41,0.11,8.86,0.41,13.33,0.95
				C366.61,147.54,383.61,153.26,398.77,161.69z"/>
			<path class="st3" d="M398.77,161.69c7.87,4.37,15.25,9.47,22.04,15.21c-4.88-7.43-9.05-15.37-12.45-23.71
				c-9.51-14.51-21.9-27.48-37.06-37.94c-3.71-2.56-7.51-4.89-11.36-7.04c1.67,4.09,3.52,8.14,5.62,12.13
				C374.13,136.65,385.51,150.51,398.77,161.69z"/>
			<path class="st1" d="M420.82,176.9c-3.35-8.24-7.52-16.18-12.45-23.71C411.77,161.52,415.93,169.46,420.82,176.9z"/>
			<path class="st2" d="M394.23,173.68c-16.94-3.73-33.46-10.71-48.63-21.17c-3.71-2.56-7.24-5.28-10.61-8.13
				c-22.99-0.56-45.03,4.6-64.59,14.31c16.68,14.1,36.85,24.37,59.32,29.31c3.96-1.96,8.03-3.76,12.24-5.36
				C359.18,176.1,376.89,173.26,394.23,173.68z"/>
			<path class="st3" d="M394.23,173.68c9,0.22,17.9,1.29,26.58,3.22c-7.78-4.31-15.16-9.4-22.04-15.21
				c-15.16-8.43-32.16-14.15-50.45-16.36c-4.47-0.54-8.92-0.84-13.33-0.95c3.38,2.84,6.9,5.57,10.61,8.13
				C360.77,162.97,377.29,169.95,394.23,173.68z"/>
			<path class="st1" d="M420.82,176.9c-6.79-5.74-14.17-10.83-22.04-15.21C405.66,167.49,413.04,172.59,420.82,176.9z"/>
			<path class="st2" d="M395.78,186.41c-16.74,4.57-34.61,6.07-52.89,3.86c-4.47-0.54-8.86-1.31-13.17-2.26
				c-20.62,10.19-37.73,25.01-50.54,42.7c21.32,4.73,43.96,4.45,66.14-1.62c2.6-3.57,5.36-7.06,8.35-10.44
				C365.87,204.84,380.23,194.1,395.78,186.41z"/>
			<path class="st3" d="M395.78,186.41c8.07-3.99,16.45-7.18,25.03-9.51c-8.89-0.2-17.79-1.28-26.58-3.22
				c-17.34-0.42-35.05,2.42-52.27,8.96c-4.21,1.6-8.29,3.4-12.24,5.36c4.31,0.95,8.7,1.72,13.17,2.26
				C361.18,192.48,379.05,190.98,395.78,186.41z"/>
			<path class="st1" d="M420.82,176.9c-8.68-1.92-17.58-3-26.58-3.22C403.02,175.62,411.92,176.69,420.82,176.9z"/>
			<path class="st2" d="M403.07,196.95c-12.69,11.83-27.82,21.46-45.04,28c-4.21,1.6-8.46,2.96-12.71,4.12
				c-13.52,18.6-21.78,39.68-24.9,61.3c21.08-5.73,40.99-16.5,57.81-32.18c0.64-4.37,1.47-8.75,2.54-13.12
				C385.16,227.18,392.88,210.99,403.07,196.95z"/>
			<path class="st3" d="M403.07,196.95c5.29-7.28,11.23-14,17.74-20.06c-7.97,3.95-16.35,7.14-25.03,9.51
				c-15.55,7.69-29.91,18.44-42.12,32.23c-2.99,3.37-5.75,6.87-8.35,10.44c4.26-1.17,8.5-2.52,12.71-4.12
				C375.25,218.41,390.38,208.78,403.07,196.95z"/>
			<path class="st1" d="M420.82,176.9c-8.58,2.33-16.96,5.52-25.03,9.51C404.47,184.03,412.85,180.85,420.82,176.9z"/>
			<path class="st2" d="M414.43,202.9c-5.74,16.37-14.65,31.93-26.86,45.73c-2.99,3.37-6.11,6.55-9.34,9.56
				c-3.32,22.76-0.84,45.26,6.45,65.85c16-14.87,28.62-33.66,36.22-55.37c-1.47-4.16-2.77-8.43-3.85-12.8
				C412.62,237.99,411.93,220.07,414.43,202.9z"/>
			<path class="st3" d="M387.57,248.63c12.21-13.8,21.12-29.36,26.86-45.73c1.3-8.91,3.43-17.62,6.39-26
				c-5.22,7.2-11.16,13.92-17.74,20.06c-10.19,14.04-17.91,30.23-22.3,48.12c-1.07,4.38-1.9,8.75-2.54,13.12
				C381.45,255.18,384.58,252.01,387.57,248.63z"/>
			<path class="st1" d="M403.07,196.95c6.59-6.14,12.53-12.85,17.74-20.06C414.3,182.95,408.36,189.67,403.07,196.95z"/>
			<path class="st2" d="M454.19,248.57c-12.23-13.78-21.17-29.32-26.94-45.68c2.53,17.16,1.87,35.09-2.53,52.97
				c-1.07,4.38-2.37,8.64-3.83,12.81c7.64,21.69,20.29,40.46,36.32,55.3c7.25-20.6,9.7-43.11,6.33-65.86
				C460.31,255.11,457.18,251.94,454.19,248.57z"/>
			<path class="st3" d="M427.25,202.89c-2.99-8.49-5.15-17.19-6.43-25.99c-1.27,8.8-3.41,17.51-6.39,26
				c-2.5,17.17-1.81,35.09,2.62,52.97c1.08,4.37,2.38,8.64,3.85,12.8c1.46-4.17,2.75-8.43,3.83-12.81
				C429.12,237.98,429.78,220.05,427.25,202.89z"/>
			<path class="st1" d="M420.82,176.9c-2.95,8.39-5.09,17.1-6.39,26C417.41,194.41,419.55,185.7,420.82,176.9z"/>
			<path class="st2" d="M438.59,196.92c10.22,14.02,17.96,30.2,22.39,48.08c1.08,4.37,1.92,8.75,2.56,13.12
				c16.85,15.66,36.78,26.39,57.86,32.08c-3.15-21.61-11.45-42.67-25.01-61.25c-4.26-1.16-8.51-2.51-12.72-4.1
				C466.45,218.33,451.31,208.73,438.59,196.92z"/>
			<path class="st3" d="M438.59,196.92c-6.6-6.12-12.55-12.83-17.78-20.02c2.97,8.38,5.12,17.09,6.43,25.99
				c5.77,16.36,14.71,31.91,26.94,45.68c2.99,3.37,6.12,6.54,9.36,9.54c-0.65-4.37-1.48-8.74-2.56-13.12
				C456.56,227.12,448.81,210.94,438.59,196.92z"/>
			<path class="st1" d="M420.82,176.9c1.28,8.8,3.44,17.5,6.43,25.99C425.94,193.99,423.78,185.28,420.82,176.9z"/>
			<path class="st2" d="M511.93,187.84c-4.31,0.96-8.7,1.73-13.17,2.28c-18.28,2.24-36.16,0.78-52.9-3.76
				c15.56,7.67,29.94,18.38,42.17,32.16c2.99,3.37,5.77,6.86,8.37,10.42c22.19,6.03,44.83,6.27,66.14,1.51
				C549.71,212.78,532.57,197.99,511.93,187.84z"/>
			<path class="st3" d="M445.86,186.36c-8.69-2.36-17.08-5.53-25.05-9.47c6.52,6.04,12.48,12.75,17.78,20.02
				c12.71,11.8,27.86,21.41,45.09,27.92c4.22,1.59,8.46,2.94,12.72,4.1c-2.6-3.57-5.38-7.05-8.37-10.42
				C475.81,204.75,461.43,194.03,445.86,186.36z"/>
			<path class="st1" d="M438.59,196.92c-5.3-7.28-11.25-13.98-17.78-20.02C426.04,184.09,432,190.8,438.59,196.92z"/>
			<path class="st2" d="M447.39,173.63c17.34-0.45,35.06,2.36,52.29,8.87c4.22,1.59,8.29,3.39,12.25,5.34
				c22.45-4.98,42.61-15.29,59.26-29.41c-19.58-9.68-41.63-14.8-64.62-14.2c-3.37,2.85-6.89,5.58-10.6,8.14
				C480.84,162.86,464.33,169.87,447.39,173.63z"/>
			<path class="st3" d="M447.39,173.63c-8.79,1.95-17.69,3.05-26.58,3.26c8.59,2.32,16.97,5.49,25.05,9.47
				c16.74,4.54,34.62,6.01,52.9,3.76c4.47-0.55,8.86-1.33,13.17-2.28c-3.96-1.95-8.04-3.75-12.25-5.34
				C482.45,175.99,464.74,173.19,447.39,173.63z"/>
			<path class="st1" d="M445.86,186.36c-8.07-3.98-16.46-7.15-25.05-9.47C428.79,180.84,437.18,184.01,445.86,186.36z"/>
			<path class="st2" d="M442.83,161.65c15.15-8.46,32.14-14.21,50.42-16.45c4.47-0.55,8.92-0.85,13.33-0.97
				c17.57-14.84,30.62-33.34,38.8-53.59c-21.83,0.53-43.74,6.24-63.81,17.47c-1.66,4.09-3.51,8.14-5.6,12.14
				C467.43,136.57,456.08,150.45,442.83,161.65z"/>
			<path class="st3" d="M442.83,161.65c-6.87,5.81-14.24,10.92-22.02,15.24c8.68-1.94,17.58-3.03,26.58-3.26
				c16.94-3.76,33.44-10.77,48.59-21.26c3.7-2.57,7.23-5.29,10.6-8.14c-4.41,0.12-8.86,0.42-13.33,0.97
				C474.97,147.45,457.98,153.2,442.83,161.65z"/>
			<path class="st1" d="M420.82,176.9c8.89-0.22,17.79-1.31,26.58-3.26C438.39,173.87,429.49,174.96,420.82,176.9z"/>
			<path class="st2" d="M433.35,152.96c9.46-14.45,21.79-27.36,36.86-37.8c3.7-2.57,7.5-4.9,11.35-7.06
				c8.66-21.31,11.61-43.75,9.44-65.48C472,53.21,455.3,68.38,442.76,87.55c0.44,4.47,0.68,9,0.68,13.59
				C443.45,119.48,439.84,136.96,433.35,152.96z"/>
			<path class="st3" d="M420.79,149.88c0.89,9.04,0.9,18.09,0.02,27.02c3.36-8.32,7.56-16.33,12.54-23.93
				c6.49-16.01,10.09-33.49,10.09-51.82c0-4.59-0.25-9.12-0.68-13.59c-2.46,3.76-4.78,7.66-6.9,11.73
				C427.36,115.53,422.45,132.69,420.79,149.88z"/>
			<path class="st1" d="M420.79,149.88c-0.87,9.04-0.87,18.09,0.02,27.02C421.69,167.97,421.68,158.92,420.79,149.88z"/>
			<path class="st3" d="M433.35,152.96c-3.41,8.42-7.61,16.43-12.54,23.93c6.78-5.75,14.16-10.86,22.02-15.24
				c13.25-11.2,24.6-25.08,33.14-41.41c2.09-3.99,3.94-8.05,5.6-12.14c-3.85,2.15-7.65,4.49-11.35,7.06
				C455.14,125.6,442.82,138.52,433.35,152.96z"/>
			<path class="st1" d="M420.82,176.9c4.93-7.5,9.12-15.52,12.54-23.93C428.38,160.56,424.18,168.58,420.82,176.9z"/>
			<path class="st1" d="M420.82,176.9c7.77-4.33,15.14-9.43,22.02-15.24C434.97,166.04,427.6,171.15,420.82,176.9z"/>
		</g>
		<g>
			<path class="st4" d="M420.79,157.33c1.16-12.03,4.6-24.05,10.55-35.42c1.49-2.85,3.11-5.58,4.83-8.21
				c-1.56-15.96-7-30.78-15.36-43.51c-8.39,12.78-13.84,27.66-15.38,43.68c1.69,2.59,3.29,5.27,4.75,8.06
				C416.15,133.29,419.61,145.3,420.79,157.33z"/>
			<path class="st5" d="M412.1,159.64c-4.58-11.25-7.13-23.54-7.13-36.43c0-3.15,0.17-6.27,0.46-9.34
				c-8.81-13.47-20.55-24.12-33.92-31.53c-1.49,15.22,0.61,30.92,6.69,45.83c2.7,1.5,5.36,3.13,7.96,4.93
				C396.77,140.41,405.44,149.49,412.1,159.64z"/>
			<path class="st1" d="M412.1,159.64c3.45,5.27,6.37,10.83,8.71,16.6c-0.62-6.25-0.63-12.58-0.02-18.91
				c-1.18-12.03-4.64-24.04-10.61-35.4c-1.47-2.79-3.06-5.47-4.75-8.06c-0.3,3.08-0.46,6.19-0.46,9.34
				C404.97,136.11,407.51,148.4,412.1,159.64z"/>
			<path class="st6" d="M405.38,165.6c-9.29-7.83-17.25-17.53-23.25-28.94c-1.47-2.79-2.77-5.63-3.93-8.49
				c-14.07-7.83-29.41-11.8-44.69-12.15c5.75,14.16,14.91,27.1,27.23,37.46c3.09,0.08,6.2,0.28,9.33,0.66
				C382.87,155.69,394.77,159.7,405.38,165.6z"/>
			<path class="st1" d="M405.38,165.6c5.51,3.06,10.67,6.63,15.43,10.64c-3.42-5.2-6.33-10.76-8.71-16.6
				c-6.65-10.16-15.33-19.23-25.94-26.56c-2.6-1.79-5.25-3.42-7.96-4.93c1.17,2.86,2.47,5.7,3.93,8.49
				C388.13,148.07,396.09,157.77,405.38,165.6z"/>
			<path class="st3" d="M420.81,176.24c-2.34-5.77-5.26-11.33-8.71-16.6C414.48,165.48,417.39,171.04,420.81,176.24z"/>
			<path class="st7" d="M402.2,173.99c-11.86-2.61-23.42-7.5-34.04-14.82c-2.6-1.79-5.06-3.7-7.43-5.69
				c-16.09-0.4-31.52,3.22-45.22,10.02c11.68,9.87,25.8,17.06,41.52,20.52c2.77-1.37,5.62-2.63,8.57-3.75
				C377.67,175.68,390.06,173.7,402.2,173.99z"/>
			<path class="st1" d="M402.2,173.99c6.3,0.15,12.53,0.9,18.61,2.25c-5.44-3.02-10.61-6.58-15.43-10.64
				c-10.61-5.9-22.51-9.9-35.31-11.45c-3.13-0.38-6.24-0.59-9.33-0.66c2.36,1.99,4.83,3.9,7.43,5.69
				C378.78,166.49,390.34,171.38,402.2,173.99z"/>
			<path class="st3" d="M420.81,176.24c-4.75-4.02-9.92-7.58-15.43-10.64C410.2,169.66,415.37,173.22,420.81,176.24z"/>
			<path class="st8" d="M403.29,182.9c-11.72,3.2-24.22,4.25-37.03,2.7c-3.13-0.38-6.2-0.92-9.22-1.58
				c-14.43,7.13-26.41,17.51-35.38,29.89c14.93,3.31,30.77,3.11,46.3-1.14c1.82-2.5,3.76-4.94,5.85-7.31
				C382.35,195.8,392.4,188.28,403.29,182.9z"/>
			<path class="st1" d="M403.29,182.9c5.65-2.79,11.52-5.02,17.52-6.66c-6.22-0.14-12.46-0.9-18.61-2.25
				c-12.14-0.29-24.54,1.69-36.59,6.27c-2.95,1.12-5.8,2.38-8.57,3.75c3.02,0.66,6.09,1.2,9.22,1.58
				C379.06,187.15,391.57,186.1,403.29,182.9z"/>
			<path class="st3" d="M420.81,176.24c-6.08-1.35-12.31-2.1-18.61-2.25C408.36,175.34,414.59,176.1,420.81,176.24z"/>
			<path class="st9" d="M408.39,190.28c-8.89,8.28-19.47,15.02-31.53,19.6c-2.95,1.12-5.92,2.07-8.9,2.89
				c-9.46,13.02-15.25,27.78-17.43,42.91c14.75-4.01,28.69-11.55,40.46-22.53c0.45-3.06,1.03-6.12,1.78-9.19
				C395.85,211.44,401.26,200.11,408.39,190.28z"/>
			<path class="st1" d="M408.39,190.28c3.7-5.1,7.86-9.8,12.42-14.04c-5.58,2.77-11.44,5-17.52,6.66
				c-10.89,5.39-20.94,12.91-29.48,22.56c-2.09,2.36-4.03,4.81-5.85,7.31c2.98-0.82,5.95-1.77,8.9-2.89
				C388.92,205.3,399.5,198.56,408.39,190.28z"/>
			<path class="st3" d="M420.81,176.24c-6.01,1.63-11.88,3.86-17.52,6.66C409.37,181.24,415.23,179.01,420.81,176.24z"/>
			<path class="st10" d="M416.34,194.44c-4.02,11.46-10.26,22.35-18.8,32.01c-2.09,2.36-4.28,4.58-6.54,6.69
				c-2.33,15.93-0.59,31.68,4.51,46.09c11.2-10.41,20.04-23.56,25.35-38.76c-1.03-2.92-1.94-5.9-2.69-8.96
				C415.07,219.01,414.59,206.46,416.34,194.44z"/>
			<path class="st1" d="M397.54,226.45c8.54-9.66,14.78-20.55,18.8-32.01c0.91-6.24,2.4-12.33,4.47-18.2
				c-3.65,5.04-7.81,9.74-12.42,14.04c-7.13,9.83-12.54,21.16-15.61,33.68c-0.75,3.06-1.33,6.13-1.78,9.19
				C393.26,231.04,395.45,228.82,397.54,226.45z"/>
			<path class="st3" d="M408.39,190.28c4.61-4.3,8.77-9,12.42-14.04C416.25,180.48,412.09,185.18,408.39,190.28z"/>
			<path class="st11" d="M444.17,226.41c-8.56-9.64-14.82-20.52-18.86-31.98c1.77,12.01,1.31,24.56-1.77,37.08
				c-0.75,3.06-1.66,6.05-2.68,8.96c5.35,15.19,14.21,28.32,25.42,38.71c5.08-14.42,6.79-30.17,4.43-46.1
				C448.46,230.99,446.27,228.77,444.17,226.41z"/>
			<path class="st1" d="M425.31,194.44c-2.1-5.94-3.6-12.04-4.5-18.2c-0.89,6.16-2.39,12.26-4.47,18.2
				c-1.75,12.02-1.27,24.56,1.83,37.08c0.76,3.06,1.67,6.04,2.69,8.96c1.02-2.92,1.93-5.9,2.68-8.96
				C426.62,219,427.08,206.45,425.31,194.44z"/>
			<path class="st3" d="M420.81,176.24c-2.07,5.87-3.56,11.97-4.47,18.2C418.42,188.5,419.92,182.4,420.81,176.24z"/>
			<path class="st12" d="M433.26,190.26c7.15,9.82,12.57,21.14,15.67,33.65c0.76,3.06,1.34,6.13,1.8,9.18
				c11.79,10.96,25.74,18.47,40.5,22.46c-2.21-15.13-8.02-29.87-17.5-42.88c-2.98-0.81-5.95-1.75-8.91-2.87
				C452.75,205.25,442.15,198.52,433.26,190.26z"/>
			<path class="st1" d="M433.26,190.26c-4.62-4.29-8.79-8.98-12.44-14.02c2.08,5.87,3.58,11.96,4.5,18.2
				c4.04,11.45,10.3,22.34,18.86,31.98c2.09,2.36,4.29,4.58,6.55,6.68c-0.45-3.06-1.04-6.12-1.8-9.18
				C445.83,211.39,440.41,200.07,433.26,190.26z"/>
			<path class="st3" d="M420.81,176.24c0.9,6.16,2.41,12.25,4.5,18.2C424.4,188.2,422.89,182.11,420.81,176.24z"/>
			<path class="st13" d="M484.59,183.9c-3.02,0.67-6.09,1.21-9.22,1.6c-12.8,1.57-25.31,0.54-37.03-2.64
				c10.89,5.37,20.96,12.87,29.52,22.51c2.09,2.36,4.04,4.8,5.86,7.3c15.54,4.22,31.38,4.39,46.3,1.06
				C511.04,201.36,499.04,191.01,484.59,183.9z"/>
			<path class="st1" d="M438.34,182.87c-6.08-1.65-11.95-3.87-17.53-6.63c4.57,4.23,8.73,8.92,12.44,14.02
				c8.9,8.26,19.5,14.99,31.56,19.55c2.95,1.11,5.92,2.06,8.91,2.87c-1.82-2.5-3.76-4.94-5.86-7.3
				C459.3,195.74,449.24,188.23,438.34,182.87z"/>
			<path class="st3" d="M433.26,190.26c-3.71-5.09-7.88-9.79-12.44-14.02C424.47,181.28,428.64,185.97,433.26,190.26z"/>
			<path class="st14" d="M439.41,173.96c12.14-0.31,24.54,1.65,36.6,6.21c2.95,1.11,5.8,2.37,8.58,3.74
				c15.72-3.48,29.82-10.7,41.49-20.59c-13.71-6.77-29.14-10.36-45.23-9.94c-2.36,1.99-4.83,3.91-7.42,5.7
				C462.83,166.42,451.27,171.32,439.41,173.96z"/>
			<path class="st1" d="M439.41,173.96c-6.15,1.37-12.38,2.13-18.6,2.28c6.01,1.62,11.88,3.84,17.53,6.63
				c11.72,3.18,24.23,4.21,37.03,2.64c3.13-0.38,6.2-0.93,9.22-1.6c-2.77-1.36-5.63-2.62-8.58-3.74
				C463.95,175.61,451.56,173.64,439.41,173.96z"/>
			<path class="st3" d="M438.34,182.87c-5.65-2.78-11.52-5-17.53-6.63C426.39,179,432.26,181.22,438.34,182.87z"/>
			<path class="st15" d="M436.22,165.57c10.6-5.92,22.49-9.94,35.29-11.52c3.13-0.38,6.24-0.6,9.33-0.68
				c12.3-10.39,21.43-23.34,27.16-37.51c-15.28,0.37-30.62,4.37-44.67,12.23c-1.16,2.86-2.46,5.7-3.92,8.5
				C453.44,148.01,445.49,157.73,436.22,165.57z"/>
			<path class="st1" d="M436.22,165.57c-4.81,4.07-9.97,7.64-15.41,10.67c6.08-1.36,12.31-2.12,18.6-2.28
				c11.86-2.63,23.41-7.54,34.01-14.88c2.59-1.8,5.06-3.71,7.42-5.7c-3.09,0.08-6.2,0.29-9.33,0.68
				C458.72,155.63,446.82,159.65,436.22,165.57z"/>
			<path class="st3" d="M420.81,176.24c6.22-0.15,12.45-0.92,18.6-2.28C433.12,174.12,426.89,174.88,420.81,176.24z"/>
			<path class="st16" d="M429.59,159.49c6.62-10.11,15.25-19.15,25.8-26.46c2.59-1.8,5.25-3.43,7.95-4.94
				c6.06-14.92,8.13-30.63,6.61-45.84c-13.31,7.41-24.99,18.03-33.77,31.45c0.31,3.13,0.48,6.3,0.48,9.52
				C436.65,136.05,434.13,148.28,429.59,159.49z"/>
			<path class="st1" d="M420.79,157.33c0.62,6.33,0.63,12.66,0.02,18.91c2.35-5.82,5.29-11.43,8.78-16.75
				c4.54-11.2,7.06-23.44,7.06-36.28c0-3.21-0.17-6.38-0.48-9.52c-1.72,2.63-3.34,5.36-4.83,8.21
				C425.39,133.28,421.96,145.29,420.79,157.33z"/>
			<path class="st3" d="M420.79,157.33c-0.61,6.33-0.61,12.66,0.02,18.91C421.42,169.99,421.42,163.66,420.79,157.33z"/>
			<path class="st1" d="M429.59,159.49c-2.39,5.89-5.33,11.5-8.78,16.75c4.75-4.03,9.91-7.6,15.41-10.67
				c9.27-7.84,17.22-17.56,23.2-28.98c1.46-2.8,2.76-5.63,3.92-8.5c-2.7,1.51-5.35,3.14-7.95,4.94
				C444.84,140.33,436.21,149.37,429.59,159.49z"/>
			<path class="st3" d="M420.81,176.24c3.45-5.25,6.39-10.86,8.78-16.75C426.1,164.81,423.16,170.42,420.81,176.24z"/>
			<path class="st3" d="M420.81,176.24c5.44-3.03,10.6-6.6,15.41-10.67C430.72,168.64,425.56,172.21,420.81,176.24z"/>
		</g>
		<g>
			<path class="st1" d="M420.8,171.23c0.23-2.41,0.92-4.81,2.11-7.08c0.3-0.57,0.62-1.12,0.97-1.64c-0.31-3.19-1.4-6.16-3.07-8.7
				c-1.68,2.56-2.77,5.53-3.08,8.74c0.34,0.52,0.66,1.05,0.95,1.61C419.87,166.43,420.56,168.83,420.8,171.23z"/>
			<path class="st1" d="M419.06,171.7c-0.92-2.25-1.43-4.71-1.43-7.29c0-0.63,0.03-1.25,0.09-1.87c-1.76-2.69-4.11-4.82-6.78-6.31
				c-0.3,3.04,0.12,6.18,1.34,9.17c0.54,0.3,1.07,0.63,1.59,0.99C415.99,167.85,417.73,169.67,419.06,171.7z"/>
			<path d="M419.06,171.7c0.69,1.05,1.27,2.17,1.74,3.32c-0.12-1.25-0.13-2.52,0-3.78c-0.24-2.41-0.93-4.81-2.12-7.08
				c-0.29-0.56-0.61-1.09-0.95-1.61c-0.06,0.62-0.09,1.24-0.09,1.87C417.63,166.99,418.14,169.45,419.06,171.7z"/>
			<path class="st1" d="M417.72,172.89c-1.86-1.57-3.45-3.51-4.65-5.79c-0.29-0.56-0.55-1.13-0.79-1.7
				c-2.81-1.57-5.88-2.36-8.94-2.43c1.15,2.83,2.98,5.42,5.45,7.49c0.62,0.02,1.24,0.06,1.87,0.13
				C413.21,170.91,415.59,171.71,417.72,172.89z"/>
			<path d="M417.72,172.89c1.1,0.61,2.13,1.33,3.09,2.13c-0.68-1.04-1.27-2.15-1.74-3.32c-1.33-2.03-3.07-3.85-5.19-5.31
				c-0.52-0.36-1.05-0.68-1.59-0.99c0.23,0.57,0.49,1.14,0.79,1.7C414.26,169.38,415.86,171.32,417.72,172.89z"/>
			<path class="st1" d="M420.8,175.02c-0.47-1.15-1.05-2.26-1.74-3.32C419.53,172.86,420.12,173.98,420.8,175.02z"/>
			<path class="st1" d="M417.08,174.57c-2.37-0.52-4.68-1.5-6.81-2.96c-0.52-0.36-1.01-0.74-1.49-1.14c-3.22-0.08-6.3,0.64-9.04,2
				c2.34,1.97,5.16,3.41,8.3,4.1c0.55-0.27,1.12-0.53,1.71-0.75C412.17,174.9,414.65,174.51,417.08,174.57z"/>
			<path d="M417.08,174.57c1.26,0.03,2.51,0.18,3.72,0.45c-1.09-0.6-2.12-1.32-3.09-2.13c-2.12-1.18-4.5-1.98-7.06-2.29
				c-0.63-0.08-1.25-0.12-1.87-0.13c0.47,0.4,0.97,0.78,1.49,1.14C412.39,173.07,414.71,174.04,417.08,174.57z"/>
			<path class="st1" d="M420.8,175.02c-0.95-0.8-1.98-1.52-3.09-2.13C418.68,173.7,419.71,174.41,420.8,175.02z"/>
			<path class="st1" d="M417.3,176.35c-2.34,0.64-4.84,0.85-7.41,0.54c-0.63-0.08-1.24-0.18-1.84-0.32
				c-2.89,1.43-5.28,3.5-7.08,5.98c2.99,0.66,6.15,0.62,9.26-0.23c0.36-0.5,0.75-0.99,1.17-1.46
				C413.11,178.93,415.12,177.42,417.3,176.35z"/>
			<path d="M417.3,176.35c1.13-0.56,2.3-1,3.5-1.33c-1.24-0.03-2.49-0.18-3.72-0.45c-2.43-0.06-4.91,0.34-7.32,1.25
				c-0.59,0.22-1.16,0.48-1.71,0.75c0.6,0.13,1.22,0.24,1.84,0.32C412.45,177.2,414.95,176.99,417.3,176.35z"/>
			<path class="st1" d="M420.8,175.02c-1.22-0.27-2.46-0.42-3.72-0.45C418.31,174.84,419.56,174.99,420.8,175.02z"/>
			<path class="st1" d="M418.32,177.82c-1.78,1.66-3.89,3-6.31,3.92c-0.59,0.22-1.18,0.41-1.78,0.58c-1.89,2.6-3.05,5.56-3.49,8.58
				c2.95-0.8,5.74-2.31,8.09-4.51c0.09-0.61,0.21-1.22,0.36-1.84C415.81,182.06,416.89,179.79,418.32,177.82z"/>
			<path d="M418.32,177.82c0.74-1.02,1.57-1.96,2.48-2.81c-1.12,0.55-2.29,1-3.5,1.33c-2.18,1.08-4.19,2.58-5.9,4.51
				c-0.42,0.47-0.81,0.96-1.17,1.46c0.6-0.16,1.19-0.35,1.78-0.58C414.42,180.83,416.54,179.48,418.32,177.82z"/>
			<path class="st1" d="M420.8,175.02c-1.2,0.33-2.38,0.77-3.5,1.33C418.51,176.02,419.69,175.57,420.8,175.02z"/>
			<path class="st1" d="M419.91,178.66c-0.8,2.29-2.05,4.47-3.76,6.4c-0.42,0.47-0.86,0.92-1.31,1.34c-0.47,3.19-0.12,6.34,0.9,9.22
				c2.24-2.08,4.01-4.71,5.07-7.75c-0.21-0.58-0.39-1.18-0.54-1.79C419.65,183.57,419.56,181.06,419.91,178.66z"/>
			<path d="M416.15,185.06c1.71-1.93,2.96-4.11,3.76-6.4c0.18-1.25,0.48-2.47,0.89-3.64c-0.73,1.01-1.56,1.95-2.48,2.81
				c-1.43,1.97-2.51,4.23-3.12,6.74c-0.15,0.61-0.27,1.23-0.36,1.84C415.29,185.98,415.73,185.53,416.15,185.06z"/>
			<path class="st1" d="M418.32,177.82c0.92-0.86,1.75-1.8,2.48-2.81C419.89,175.86,419.06,176.8,418.32,177.82z"/>
			<path class="st1" d="M425.47,185.05c-1.71-1.93-2.96-4.1-3.77-6.4c0.35,2.4,0.26,4.91-0.35,7.42c-0.15,0.61-0.33,1.21-0.54,1.79
				c1.07,3.04,2.84,5.66,5.08,7.74c1.02-2.88,1.36-6.03,0.89-9.22C426.33,185.97,425.89,185.52,425.47,185.05z"/>
			<path d="M421.7,178.66c-0.42-1.19-0.72-2.41-0.9-3.64c-0.18,1.23-0.48,2.45-0.89,3.64c-0.35,2.4-0.25,4.91,0.37,7.42
				c0.15,0.61,0.33,1.21,0.54,1.79c0.2-0.58,0.39-1.18,0.54-1.79C421.96,183.57,422.06,181.06,421.7,178.66z"/>
			<path class="st1" d="M420.8,175.02c-0.41,1.17-0.71,2.39-0.89,3.64C420.32,177.47,420.62,176.25,420.8,175.02z"/>
			<path class="st1" d="M423.29,177.82c1.43,1.96,2.51,4.23,3.13,6.73c0.15,0.61,0.27,1.23,0.36,1.84c2.36,2.19,5.15,3.69,8.1,4.49
				c-0.44-3.03-1.6-5.97-3.5-8.58c-0.6-0.16-1.19-0.35-1.78-0.57C427.19,180.82,425.07,179.47,423.29,177.82z"/>
			<path d="M423.29,177.82c-0.92-0.86-1.76-1.8-2.49-2.8c0.42,1.17,0.72,2.39,0.9,3.64c0.81,2.29,2.06,4.47,3.77,6.4
				c0.42,0.47,0.86,0.92,1.31,1.34c-0.09-0.61-0.21-1.22-0.36-1.84C425.81,182.05,424.72,179.78,423.29,177.82z"/>
			<path class="st1" d="M420.8,175.02c0.18,1.23,0.48,2.45,0.9,3.64C421.52,177.41,421.22,176.19,420.8,175.02z"/>
			<path class="st1" d="M433.56,176.55c-0.6,0.13-1.22,0.24-1.84,0.32c-2.56,0.31-5.06,0.11-7.41-0.53c2.18,1.07,4.19,2.57,5.9,4.5
				c0.42,0.47,0.81,0.96,1.17,1.46c3.11,0.84,6.28,0.88,9.26,0.21C438.85,180.04,436.45,177.97,433.56,176.55z"/>
			<path d="M424.31,176.34c-1.22-0.33-2.39-0.77-3.51-1.33c0.91,0.85,1.75,1.78,2.49,2.8c1.78,1.65,3.9,3,6.31,3.91
				c0.59,0.22,1.18,0.41,1.78,0.57c-0.36-0.5-0.75-0.99-1.17-1.46C428.5,178.92,426.49,177.41,424.31,176.34z"/>
			<path class="st1" d="M423.29,177.82c-0.74-1.02-1.58-1.96-2.49-2.8C421.53,176.02,422.37,176.96,423.29,177.82z"/>
			<path class="st1" d="M424.52,174.56c2.43-0.06,4.91,0.33,7.32,1.24c0.59,0.22,1.16,0.47,1.72,0.75c3.14-0.7,5.96-2.14,8.3-4.12
				c-2.74-1.35-5.83-2.07-9.05-1.99c-0.47,0.4-0.97,0.78-1.48,1.14C429.2,173.05,426.89,174.03,424.52,174.56z"/>
			<path d="M424.52,174.56c-1.23,0.27-2.48,0.43-3.72,0.46c1.2,0.32,2.38,0.77,3.51,1.33c2.34,0.64,4.85,0.84,7.41,0.53
				c0.63-0.08,1.24-0.19,1.84-0.32c-0.55-0.27-1.13-0.52-1.72-0.75C429.43,174.89,426.95,174.5,424.52,174.56z"/>
			<path class="st1" d="M424.31,176.34c-1.13-0.56-2.3-1-3.51-1.33C421.92,175.57,423.09,176.01,424.31,176.34z"/>
			<path class="st1" d="M423.88,172.88c2.12-1.18,4.5-1.99,7.06-2.3c0.63-0.08,1.25-0.12,1.87-0.14c2.46-2.08,4.29-4.67,5.43-7.5
				c-3.06,0.07-6.12,0.87-8.93,2.45c-0.23,0.57-0.49,1.14-0.78,1.7C427.33,169.37,425.74,171.31,423.88,172.88z"/>
			<path d="M423.88,172.88c-0.96,0.81-1.99,1.53-3.08,2.13c1.22-0.27,2.46-0.42,3.72-0.46c2.37-0.53,4.68-1.51,6.8-2.98
				c0.52-0.36,1.01-0.74,1.48-1.14c-0.62,0.02-1.24,0.06-1.87,0.14C428.38,170.89,426,171.7,423.88,172.88z"/>
			<path class="st1" d="M420.8,175.02c1.24-0.03,2.49-0.18,3.72-0.46C423.26,174.59,422.02,174.74,420.8,175.02z"/>
			<path class="st1" d="M422.56,171.67c1.32-2.02,3.05-3.83,5.16-5.29c0.52-0.36,1.05-0.69,1.59-0.99c1.21-2.98,1.63-6.13,1.32-9.17
				c-2.66,1.48-5,3.61-6.75,6.29c0.06,0.63,0.1,1.26,0.1,1.9C423.97,166.98,423.47,169.42,422.56,171.67z"/>
			<path d="M420.8,171.23c0.12,1.27,0.13,2.53,0,3.78c0.47-1.16,1.06-2.29,1.76-3.35c0.91-2.24,1.41-4.69,1.41-7.26
				c0-0.64-0.03-1.28-0.1-1.9c-0.34,0.53-0.67,1.07-0.97,1.64C421.72,166.42,421.03,168.83,420.8,171.23z"/>
			<path class="st1" d="M420.8,171.23c-0.12,1.27-0.12,2.53,0,3.78C420.92,173.77,420.92,172.5,420.8,171.23z"/>
			<path d="M422.56,171.67c-0.48,1.18-1.07,2.3-1.76,3.35c0.95-0.81,1.98-1.52,3.08-2.13c1.85-1.57,3.44-3.51,4.64-5.8
				c0.29-0.56,0.55-1.13,0.78-1.7c-0.54,0.3-1.07,0.63-1.59,0.99C425.61,167.84,423.88,169.64,422.56,171.67z"/>
			<path class="st1" d="M420.8,175.02c0.69-1.05,1.28-2.17,1.76-3.35C421.86,172.73,421.27,173.85,420.8,175.02z"/>
			<path class="st1" d="M420.8,175.02c1.09-0.61,2.12-1.32,3.08-2.13C422.78,173.5,421.75,174.21,420.8,175.02z"/>
		</g>
		<circle class="st1" cx="420.8" cy="174.71" r="4.73"/>
	</g>
</g>
</svg>
