<?xml version="1.0" encoding="utf-8"?>
<!-- Generator: Adobe Illustrator 27.9.0, SVG Export Plug-In . SVG Version: 6.00 Build 0)  -->
<svg version="1.1" id="Layer_1" xmlns="http://www.w3.org/2000/svg" xmlns:xlink="http://www.w3.org/1999/xlink" x="0px" y="0px"
	 viewBox="0 0 1024 1280" style="enable-background:new 0 0 1024 1280;" xml:space="preserve">
<style type="text/css">
	.st0{fill:#A6A8AB;}
	.st1{fill:#FFFFFF;}
	.st2{fill:#231F20;}
	.st3{fill:#E6E7E8;}
	.st4{fill:#00A69C;}
	.st5{fill:#8BC53F;}
	.st6{fill:#EC1C24;}
	.st7{fill:#FAAF40;}
	.st8{fill:#1B75BB;}
</style>
<g>
	<g>
		<rect x="98.97" y="2.04" class="st0" width="847.26" height="1277.96"/>
	</g>
	<g>
		<rect x="342.32" y="33.64" class="st1" width="361.27" height="392.39"/>
		<path class="st2" d="M703.9,426.33H342.02V33.34H703.9V426.33z M342.62,425.72h360.67V33.94H342.62V425.72z"/>
	</g>
	<g>
		<rect x="415.33" y="133.9" class="st3" width="215.25" height="292.12"/>
		<path class="st2" d="M630.89,426.33H415.03V133.6h215.85V426.33z M415.64,425.72h214.64V134.21H415.64V425.72z"/>
	</g>
	<g>
		<polygon class="st3" points="580.95,594.97 580.95,481.7 595.75,481.7 595.75,426.03 449.98,426.03 449.98,481.7 464.78,481.7 
			464.78,594.97 156.94,594.97 156.94,1079.28 888.79,1079.28 888.79,594.97 		"/>
		<path class="st2" d="M889.09,1079.58H156.64V594.67h307.84V482h-14.81v-56.28h146.38V482h-14.81v112.67h307.84V1079.58z
			 M157.24,1078.98h731.24v-483.7H580.64V481.39h14.81v-55.07H450.28v55.07h14.81v113.88H157.24V1078.98z"/>
	</g>
	<g>
		<rect x="873.57" y="1014.36" class="st2" width="15.22" height="20.5"/>
	</g>
	<g>
		<rect x="873.57" y="870.86" class="st2" width="15.22" height="20.5"/>
	</g>
	<g>
		<rect x="873.57" y="727.36" class="st2" width="15.22" height="20.5"/>
	</g>
	<g>
		<rect x="852.25" y="596.41" class="st2" width="21.35" height="21.35"/>
	</g>
	<g>
		<rect x="156.94" y="1109.65" class="st1" width="731.61" height="151.71"/>
		<path class="st2" d="M888.85,1261.66H156.64v-152.31h732.21V1261.66z M157.24,1261.06h731.01v-151.11H157.24V1261.06z"/>
	</g>
	<g>
		<path class="st2" d="M393,1200.37l13.24-34.47h4.91l14.11,34.47h-5.2l-4.02-10.44h-14.42l-3.79,10.44H393z M402.95,1186.21h11.69
			l-3.6-9.55c-1.1-2.9-1.91-5.28-2.45-7.15c-0.44,2.21-1.06,4.41-1.86,6.58L402.95,1186.21z"/>
		<path class="st2" d="M444.67,1191.22l4.16,0.54c-0.45,2.87-1.62,5.11-3.49,6.74c-1.87,1.62-4.17,2.43-6.9,2.43
			c-3.42,0-6.17-1.12-8.24-3.35c-2.08-2.23-3.12-5.44-3.12-9.61c0-2.7,0.45-5.06,1.34-7.08c0.89-2.02,2.25-3.54,4.08-4.55
			c1.83-1.01,3.81-1.52,5.96-1.52c2.71,0,4.93,0.69,6.65,2.06c1.72,1.37,2.83,3.32,3.32,5.84l-4.12,0.64
			c-0.39-1.68-1.09-2.94-2.08-3.79c-1-0.85-2.2-1.27-3.61-1.27c-2.13,0-3.86,0.76-5.2,2.29c-1.33,1.53-2,3.95-2,7.25
			c0,3.36,0.64,5.79,1.93,7.31c1.29,1.52,2.96,2.28,5.03,2.28c1.66,0,3.05-0.51,4.16-1.53
			C443.66,1194.91,444.37,1193.34,444.67,1191.22z"/>
		<path class="st2" d="M461.69,1196.58l0.61,3.74c-1.19,0.25-2.26,0.38-3.2,0.38c-1.54,0-2.73-0.24-3.57-0.73
			c-0.85-0.49-1.44-1.12-1.79-1.92c-0.35-0.79-0.52-2.46-0.52-5v-14.37h-3.1v-3.29h3.1v-6.18l4.21-2.54v8.72h4.26v3.29h-4.26v14.6
			c0,1.21,0.07,1.98,0.22,2.33c0.15,0.34,0.39,0.62,0.73,0.82c0.34,0.2,0.82,0.31,1.45,0.31
			C460.3,1196.75,460.92,1196.69,461.69,1196.58z"/>
		<path class="st2" d="M465.85,1170.76v-4.87h4.23v4.87H465.85z M465.85,1200.37v-24.97h4.23v24.97H465.85z"/>
		<path class="st2" d="M483.47,1200.37l-9.5-24.97h4.47l5.36,14.96c0.58,1.61,1.11,3.29,1.6,5.03c0.38-1.32,0.9-2.9,1.58-4.75
			l5.55-15.24h4.35l-9.45,24.97H483.47z"/>
		<path class="st2" d="M500.63,1170.76v-4.87h4.23v4.87H500.63z M500.63,1200.37v-24.97h4.23v24.97H500.63z"/>
		<path class="st2" d="M520.55,1196.58l0.61,3.74c-1.19,0.25-2.26,0.38-3.2,0.38c-1.54,0-2.73-0.24-3.57-0.73
			c-0.85-0.49-1.44-1.12-1.79-1.92c-0.35-0.79-0.52-2.46-0.52-5v-14.37h-3.1v-3.29h3.1v-6.18l4.21-2.54v8.72h4.26v3.29h-4.26v14.6
			c0,1.21,0.07,1.98,0.22,2.33c0.15,0.34,0.39,0.62,0.73,0.82c0.34,0.2,0.82,0.31,1.45,0.31
			C519.16,1196.75,519.78,1196.69,520.55,1196.58z"/>
		<path class="st2" d="M524.5,1209.99l-0.47-3.97c0.92,0.25,1.73,0.38,2.42,0.38c0.94,0,1.69-0.16,2.26-0.47
			c0.56-0.31,1.03-0.75,1.39-1.32c0.27-0.42,0.7-1.47,1.29-3.15c0.08-0.24,0.2-0.58,0.38-1.03l-9.48-25.02h4.56l5.2,14.46
			c0.67,1.83,1.28,3.76,1.81,5.78c0.49-1.94,1.07-3.84,1.74-5.69l5.34-14.56h4.23l-9.5,25.4c-1.02,2.74-1.81,4.63-2.38,5.67
			c-0.75,1.4-1.61,2.42-2.59,3.07c-0.97,0.65-2.13,0.98-3.48,0.98C526.42,1210.51,525.51,1210.33,524.5,1209.99z"/>
		<path class="st2" d="M559.94,1200.37v-4.23l17.66-22.08c1.25-1.57,2.45-2.93,3.57-4.09h-19.24v-4.07h24.69v4.07l-19.35,23.92
			l-2.09,2.42h22.01v4.07H559.94z"/>
		<path class="st2" d="M589.99,1187.88c0-4.62,1.29-8.05,3.86-10.28c2.15-1.85,4.77-2.77,7.85-2.77c3.43,0,6.24,1.13,8.42,3.37
			c2.18,2.25,3.27,5.36,3.27,9.32c0,3.21-0.48,5.74-1.45,7.58c-0.96,1.84-2.37,3.27-4.21,4.29c-1.84,1.02-3.85,1.53-6.03,1.53
			c-3.5,0-6.32-1.12-8.48-3.36C591.07,1195.33,589.99,1192.1,589.99,1187.88z M594.34,1187.88c0,3.2,0.7,5.59,2.09,7.18
			c1.4,1.59,3.15,2.39,5.27,2.39c2.1,0,3.85-0.8,5.24-2.4c1.4-1.6,2.09-4.04,2.09-7.31c0-3.09-0.7-5.43-2.1-7.02
			c-1.4-1.59-3.15-2.39-5.23-2.39c-2.12,0-3.87,0.79-5.27,2.38C595.04,1182.3,594.34,1184.69,594.34,1187.88z"/>
		<path class="st2" d="M618.35,1200.37v-24.97h3.81v3.55c1.83-2.74,4.48-4.12,7.95-4.12c1.5,0,2.89,0.27,4.15,0.81
			c1.26,0.54,2.21,1.25,2.83,2.13c0.63,0.88,1.07,1.92,1.32,3.13c0.16,0.78,0.24,2.16,0.24,4.12v15.36h-4.23v-15.19
			c0-1.72-0.16-3.01-0.49-3.87c-0.33-0.85-0.91-1.54-1.75-2.05c-0.84-0.51-1.82-0.76-2.95-0.76c-1.8,0-3.36,0.57-4.67,1.72
			c-1.31,1.14-1.96,3.32-1.96,6.51v13.64H618.35z"/>
		<path class="st2" d="M662.23,1192.33l4.37,0.54c-0.69,2.56-1.97,4.54-3.83,5.95c-1.87,1.41-4.25,2.12-7.15,2.12
			c-3.65,0-6.55-1.12-8.69-3.37c-2.14-2.25-3.21-5.4-3.21-9.47c0-4.2,1.08-7.46,3.25-9.78c2.16-2.32,4.97-3.48,8.42-3.48
			c3.34,0,6.07,1.14,8.18,3.41c2.12,2.27,3.17,5.47,3.17,9.59c0,0.25-0.01,0.63-0.02,1.13H648.1c0.16,2.74,0.93,4.84,2.33,6.3
			c1.4,1.46,3.14,2.19,5.22,2.19c1.55,0,2.88-0.41,3.97-1.22C660.72,1195.42,661.59,1194.12,662.23,1192.33z M648.34,1185.49h13.94
			c-0.19-2.1-0.72-3.68-1.6-4.73c-1.35-1.63-3.1-2.45-5.24-2.45c-1.94,0-3.58,0.65-4.9,1.95
			C649.21,1181.57,648.48,1183.31,648.34,1185.49z"/>
	</g>
	<g>
		<path class="st2" d="M423.18,103.06v-23.6h10.46c2.1,0,3.7,0.21,4.8,0.64c1.09,0.42,1.97,1.17,2.62,2.25
			c0.65,1.07,0.98,2.26,0.98,3.56c0,1.67-0.54,3.09-1.63,4.23c-1.08,1.15-2.76,1.88-5.02,2.19c0.83,0.4,1.45,0.79,1.88,1.18
			c0.91,0.84,1.78,1.88,2.59,3.14l4.1,6.42h-3.93l-3.12-4.91c-0.91-1.42-1.66-2.5-2.25-3.25c-0.59-0.75-1.12-1.28-1.59-1.58
			c-0.47-0.3-0.94-0.51-1.42-0.63c-0.35-0.07-0.93-0.11-1.74-0.11h-3.62v10.48H423.18z M426.3,89.88h6.71
			c1.43,0,2.54-0.15,3.35-0.44c0.8-0.3,1.42-0.77,1.83-1.42c0.42-0.65,0.63-1.35,0.63-2.12c0-1.12-0.41-2.03-1.22-2.75
			c-0.81-0.72-2.09-1.08-3.84-1.08h-7.47V89.88z"/>
		<path class="st2" d="M447,103.06v-23.6h17.06v2.78h-13.94v7.23h13.05v2.77h-13.05v8.03h14.49v2.78H447z"/>
		<path class="st2" d="M468.93,103.06v-23.6h8.9c1.57,0,2.76,0.08,3.59,0.23c1.16,0.19,2.13,0.56,2.91,1.1
			c0.78,0.54,1.41,1.3,1.89,2.28c0.48,0.98,0.72,2.05,0.72,3.22c0,2.01-0.64,3.7-1.92,5.09c-1.28,1.39-3.58,2.08-6.92,2.08h-6.05
			v9.59H468.93z M472.05,90.69h6.1c2.02,0,3.45-0.38,4.3-1.13c0.85-0.75,1.27-1.81,1.27-3.17c0-0.99-0.25-1.83-0.75-2.54
			c-0.5-0.7-1.16-1.17-1.97-1.39c-0.53-0.14-1.5-0.21-2.91-0.21h-6.04V90.69z"/>
		<path class="st2" d="M507.75,94.79l3.12,0.79c-0.65,2.56-1.83,4.52-3.53,5.87c-1.7,1.35-3.78,2.02-6.24,2.02
			c-2.54,0-4.61-0.52-6.21-1.55c-1.59-1.04-2.81-2.54-3.64-4.5c-0.83-1.96-1.25-4.07-1.25-6.33c0-2.46,0.47-4.6,1.41-6.43
			c0.94-1.83,2.27-3.22,4.01-4.17c1.73-0.95,3.64-1.42,5.72-1.42c2.36,0,4.35,0.6,5.96,1.8c1.61,1.2,2.73,2.89,3.36,5.07l-3.07,0.72
			c-0.55-1.72-1.34-2.97-2.38-3.75c-1.04-0.78-2.35-1.18-3.93-1.18c-1.81,0-3.33,0.43-4.55,1.3c-1.22,0.87-2.07,2.04-2.57,3.5
			c-0.49,1.46-0.74,2.98-0.74,4.53c0,2.01,0.29,3.76,0.88,5.26c0.58,1.5,1.49,2.62,2.73,3.36c1.23,0.74,2.57,1.11,4.01,1.11
			c1.75,0,3.23-0.5,4.44-1.51C506.5,98.27,507.32,96.78,507.75,94.79z"/>
		<path class="st2" d="M537,100.28c-0.96,1.06-2,1.86-3.12,2.39c-1.13,0.53-2.34,0.8-3.65,0.8c-2.41,0-4.33-0.82-5.75-2.45
			c-1.15-1.33-1.72-2.82-1.72-4.46c0-1.46,0.47-2.78,1.41-3.95c0.94-1.18,2.34-2.21,4.21-3.1c-1.06-1.22-1.77-2.22-2.12-2.98
			c-0.35-0.76-0.53-1.5-0.53-2.21c0-1.42,0.56-2.65,1.67-3.69c1.11-1.05,2.51-1.57,4.19-1.57c1.61,0,2.93,0.49,3.95,1.48
			c1.02,0.99,1.54,2.17,1.54,3.56c0,2.24-1.49,4.16-4.46,5.75l4.23,5.39c0.48-0.94,0.86-2.04,1.13-3.28l3.01,0.64
			c-0.52,2.06-1.21,3.76-2.09,5.09c1.08,1.44,2.31,2.65,3.69,3.62l-1.95,2.3C539.45,102.86,538.24,101.75,537,100.28z M535.18,97.99
			l-5.31-6.58c-1.57,0.93-2.62,1.8-3.17,2.6c-0.55,0.8-0.82,1.59-0.82,2.37c0,0.96,0.38,1.95,1.14,2.98
			c0.76,1.03,1.84,1.55,3.24,1.55c0.87,0,1.77-0.27,2.7-0.81C533.88,99.55,534.62,98.85,535.18,97.99z M531.11,87.98
			c1.26-0.74,2.07-1.39,2.44-1.95c0.37-0.56,0.56-1.18,0.56-1.85c0-0.8-0.26-1.46-0.76-1.97c-0.51-0.51-1.15-0.76-1.91-0.76
			c-0.78,0-1.44,0.25-1.96,0.76c-0.52,0.5-0.78,1.12-0.78,1.85c0,0.36,0.09,0.75,0.28,1.15c0.19,0.4,0.47,0.83,0.85,1.28
			L531.11,87.98z"/>
		<path class="st2" d="M555.19,103.06v-23.6h15.92v2.78h-12.8v7.31h11.07v2.78h-11.07v10.72H555.19z"/>
		<path class="st2" d="M573.72,94.52c0-3.17,0.88-5.51,2.64-7.03c1.47-1.27,3.26-1.9,5.38-1.9c2.35,0,4.27,0.77,5.76,2.31
			c1.49,1.54,2.24,3.67,2.24,6.38c0,2.2-0.33,3.93-0.99,5.19c-0.66,1.26-1.62,2.24-2.88,2.94c-1.26,0.7-2.64,1.05-4.13,1.05
			c-2.39,0-4.33-0.77-5.8-2.3C574.45,99.62,573.72,97.4,573.72,94.52z M576.69,94.52c0,2.19,0.48,3.83,1.43,4.92
			c0.95,1.09,2.16,1.63,3.61,1.63c1.44,0,2.63-0.55,3.59-1.64c0.96-1.09,1.43-2.76,1.43-5.01c0-2.11-0.48-3.72-1.44-4.8
			c-0.96-1.09-2.15-1.63-3.58-1.63c-1.45,0-2.65,0.54-3.61,1.63C577.17,90.69,576.69,92.33,576.69,94.52z"/>
		<path class="st2" d="M593.1,103.06V85.97h2.61v2.59c0.67-1.21,1.28-2.01,1.84-2.4s1.18-0.58,1.86-0.58c0.98,0,1.97,0.31,2.98,0.93
			l-1,2.69c-0.71-0.42-1.42-0.63-2.12-0.63c-0.63,0-1.2,0.19-1.71,0.57c-0.5,0.38-0.86,0.91-1.08,1.59
			c-0.32,1.03-0.48,2.16-0.48,3.38v8.95H593.1z"/>
		<path class="st2" d="M615.31,103.06v-2.51c-1.33,1.93-3.14,2.9-5.42,2.9c-1.01,0-1.95-0.19-2.82-0.58
			c-0.87-0.39-1.52-0.87-1.95-1.46c-0.42-0.58-0.72-1.3-0.89-2.15c-0.12-0.57-0.18-1.47-0.18-2.7V85.97h2.9v9.48
			c0,1.51,0.06,2.53,0.18,3.06c0.18,0.76,0.57,1.36,1.16,1.79c0.59,0.43,1.32,0.65,2.19,0.65s1.68-0.22,2.45-0.67
			c0.76-0.45,1.3-1.05,1.62-1.82c0.32-0.77,0.47-1.88,0.47-3.34v-9.16h2.9v17.09H615.31z"/>
		<path class="st2" d="M622.44,103.06V85.97h2.59v2.4c0.54-0.84,1.25-1.51,2.14-2.02c0.89-0.51,1.9-0.76,3.04-0.76
			c1.27,0,2.3,0.26,3.11,0.79c0.81,0.53,1.38,1.26,1.71,2.21c1.35-2,3.11-2.99,5.28-2.99c1.7,0,3,0.47,3.91,1.41
			c0.91,0.94,1.37,2.39,1.37,4.34v11.73h-2.88V92.3c0-1.16-0.09-1.99-0.28-2.5c-0.19-0.51-0.53-0.92-1.02-1.23
			c-0.49-0.31-1.07-0.47-1.74-0.47c-1.2,0-2.2,0.4-2.99,1.2c-0.79,0.8-1.19,2.08-1.19,3.84v9.93h-2.9V91.96
			c0-1.29-0.24-2.25-0.71-2.9c-0.47-0.64-1.24-0.97-2.32-0.97c-0.82,0-1.57,0.21-2.26,0.64c-0.69,0.43-1.19,1.06-1.51,1.88
			c-0.31,0.83-0.47,2.02-0.47,3.57v8.87H622.44z"/>
	</g>
	<g>
		<polygon class="st4" points="448.84,834.64 461.93,832 446.58,852.07 436.87,828.74 		"/>
	</g>
	<g>
		<polygon class="st4" points="422.97,934.69 436.3,933.8 418.43,951.67 411.88,927.26 		"/>
	</g>
	<g>
		<polygon class="st4" points="595.49,884.71 582.85,889.02 595.49,867.13 608.12,889.02 		"/>
	</g>
	<g>
		<polygon class="st4" points="595.49,950.2 582.85,954.51 595.49,932.62 608.12,954.51 		"/>
	</g>
	<g>
		<polygon class="st4" points="595.49,845.18 582.85,849.49 595.49,827.6 608.12,849.49 		"/>
	</g>
	<g>
		<polygon class="st4" points="287.62,1003.36 291.93,1015.99 270.04,1003.36 291.93,990.72 		"/>
	</g>
	<g>
		<polygon class="st4" points="226.57,762.04 213.94,766.36 226.57,744.47 239.21,766.36 		"/>
	</g>
	<g>
		<polygon class="st4" points="226.57,710.34 213.94,714.65 226.57,692.77 239.21,714.65 		"/>
	</g>
	<g>
		<polygon class="st4" points="310.92,678.91 306.61,666.27 328.5,678.91 306.61,691.55 		"/>
	</g>
	<g>
		<polygon class="st4" points="431.7,678.91 427.39,666.27 449.27,678.91 427.39,691.55 		"/>
	</g>
	<g>
		<polygon class="st4" points="495.89,624.66 483.25,628.98 495.89,607.09 508.52,628.98 		"/>
	</g>
	<g>
		<polygon class="st4" points="550.41,550.49 563.04,546.18 550.41,568.07 537.77,546.18 		"/>
	</g>
	<g>
		<polygon class="st4" points="575.24,678.91 570.93,666.27 592.81,678.91 570.93,691.55 		"/>
	</g>
	<g>
		<polygon class="st4" points="696.96,678.91 692.65,666.27 714.54,678.91 692.65,691.55 		"/>
	</g>
	<g>
		<polygon class="st4" points="819.72,701.24 832.36,696.93 819.72,718.82 807.08,696.93 		"/>
	</g>
	<g>
		<polygon class="st4" points="819.72,802.02 832.36,797.71 819.72,819.59 807.08,797.71 		"/>
	</g>
	<g>
		<polygon class="st4" points="819.72,934.99 832.36,930.68 819.72,952.57 807.08,930.68 		"/>
	</g>
	<g>
		<polygon class="st4" points="800.96,1001.75 805.27,1014.39 783.38,1001.75 805.27,989.11 		"/>
	</g>
	<g>
		<polygon class="st4" points="729.48,1001.75 733.79,1014.39 711.9,1001.75 733.79,989.11 		"/>
	</g>
	<g>
		<polygon class="st4" points="619.49,1010.97 632.23,1014.94 609.12,1025.17 611.82,1000.04 		"/>
	</g>
	<g>
		<polygon class="st4" points="495.89,473.79 483.25,478.1 495.89,456.21 508.52,478.1 		"/>
	</g>
	<g>
		<polygon class="st4" points="550.41,460.52 563.04,456.21 550.41,478.1 537.77,456.21 		"/>
	</g>
	<g>
		<polygon class="st4" points="466.97,392.47 454.33,396.79 466.97,374.9 479.61,396.79 		"/>
	</g>
	<g>
		<polygon class="st4" points="466.97,275.65 454.33,279.96 466.97,258.08 479.61,279.96 		"/>
	</g>
	<g>
		<polygon class="st4" points="578.23,262.39 590.87,258.08 578.23,279.96 565.59,258.08 		"/>
	</g>
	<g>
		<polygon class="st4" points="578.23,379.21 590.87,374.9 578.23,396.79 565.59,374.9 		"/>
	</g>
	<g>
		<polygon class="st4" points="493.35,174.09 489.04,161.45 510.93,174.09 489.04,186.72 		"/>
	</g>
	<g>
		<polygon class="st4" points="538.58,174.09 534.27,161.45 556.16,174.09 534.27,186.72 		"/>
	</g>
	<g>
		<polygon class="st4" points="226.57,895.75 213.94,900.07 226.57,878.18 239.21,900.07 		"/>
	</g>
	<g>
		<path class="st4" d="M595.49,1021.98c-1.66,0-3.01-1.35-3.01-3.01V882.91c0-1.66,1.35-3.01,3.01-3.01s3.01,1.35,3.01,3.01v136.06
			C598.5,1020.63,597.15,1021.98,595.49,1021.98z"/>
	</g>
	<g>
		<path class="st4" d="M595.49,841.39c-0.01,0-0.01,0-0.02,0c-1.66-0.01-3-1.37-2.99-3.03c0-0.05,0-4.25-1.35-9.71
			c-0.78-3.17-1.85-6.14-3.19-8.83c-1.64-3.31-3.69-6.21-6.09-8.61c-6.07-6.09-14.52-9.17-25.1-9.17h-70.46
			c-11.29,0-20,3.18-25.89,9.44c-9.42,10.03-8.62,24.72-8.61,24.86c0.1,1.66-1.16,3.09-2.82,3.2c-1.66,0.11-3.09-1.16-3.2-2.82
			c-0.01-0.18-0.26-4.46,0.85-10.16c0.65-3.36,1.65-6.54,2.96-9.46c1.65-3.69,3.82-6.97,6.42-9.75
			c7.07-7.52,17.26-11.34,30.28-11.34h70.46c12.27,0,22.17,3.7,29.41,10.99c2.87,2.89,5.31,6.35,7.25,10.28
			c1.53,3.11,2.75,6.52,3.63,10.13c1.49,6.14,1.48,10.79,1.48,10.98C598.49,840.05,597.14,841.39,595.49,841.39z"/>
	</g>
	<g>
		<path class="st4" d="M350,1006.37h-65.42c-1.66,0-3.01-1.35-3.01-3.01s1.35-3.01,3.01-3.01H350c12.12,0,22.83-1.51,31.81-4.49
			c7.09-2.35,13.13-5.63,17.94-9.72c4.25-3.62,6.75-7.23,8.1-9.63c1.41-2.51,1.89-4.24,1.93-4.38l0.03-0.1l29.86-105.71
			c0.45-1.6,2.12-2.53,3.72-2.08c1.6,0.45,2.53,2.12,2.08,3.72l-29.85,105.68c-0.24,0.9-2.52,8.89-11.55,16.74
			c-5.39,4.69-12.11,8.41-19.98,11.07C374.41,1004.71,362.94,1006.37,350,1006.37z"/>
	</g>
	<g>
		<path class="st4" d="M251.03,1006.37c-3.22,0-12.51-0.61-19.48-7.11c-5.3-4.95-7.99-12.08-7.99-21.19v-217.6
			c0-1.66,1.35-3.01,3.01-3.01c1.66,0,3.01,1.35,3.01,3.01v217.6c0,7.35,2.03,12.98,6.04,16.75c2.66,2.49,6.14,4.18,10.35,5.01
			c3.27,0.64,5.76,0.5,5.78,0.49l-0.01,0l0.41,6.01C252.09,1006.35,251.68,1006.37,251.03,1006.37z"/>
	</g>
	<g>
		<path class="st4" d="M223.59,704.51c-0.03-0.5-0.75-12.24,7.07-20.62c4.95-5.3,12.08-7.99,21.19-7.99h186.48
			c1.66,0,3.01,1.35,3.01,3.01s-1.35,3.01-3.01,3.01H251.85c-7.35,0-12.98,2.03-16.75,6.04c-2.49,2.66-4.18,6.14-5.01,10.35
			c-0.64,3.27-0.5,5.76-0.49,5.78l0-0.01L223.59,704.51z"/>
	</g>
	<g>
		<path class="st4" d="M471.43,681.92c-0.66,0-1.06-0.03-1.14-0.03l0.41-6.01l-0.01,0c0.02,0,2.51,0.15,5.78-0.49
			c4.21-0.83,7.7-2.51,10.35-5.01c4.01-3.77,6.04-9.4,6.04-16.75l0-186.48c0-1.66,1.35-3.01,3.01-3.01s3.01,1.35,3.01,3.01l0,186.48
			c0,9.11-2.69,16.23-7.99,21.19C483.95,681.32,474.66,681.92,471.43,681.92z"/>
	</g>
	<g>
		<path class="st4" d="M795.27,1004.79c-0.66,0-1.06-0.03-1.14-0.03l0.41-6.01l-0.01,0c0.02,0,2.51,0.15,5.78-0.49
			c4.21-0.83,7.7-2.51,10.35-5.01c4.01-3.77,6.04-9.4,6.04-16.75V737.61c0-1.66,1.35-3.01,3.01-3.01s3.01,1.35,3.01,3.01V976.5
			c0,9.11-2.69,16.23-7.99,21.19C807.78,1004.18,798.49,1004.79,795.27,1004.79z"/>
	</g>
	<g>
		<path class="st4" d="M822.7,704.51l-6.01-0.41l0,0.01c0-0.02,0.15-2.51-0.49-5.78c-0.83-4.21-2.51-7.7-5.01-10.35
			c-3.77-4.01-9.4-6.04-16.75-6.04H607.97c-1.66,0-3.01-1.35-3.01-3.01s1.35-3.01,3.01-3.01h186.48c9.11,0,16.23,2.69,21.19,7.99
			C823.45,692.26,822.74,704.01,822.7,704.51z"/>
	</g>
	<g>
		<path class="st4" d="M574.86,681.92c-3.22,0-12.51-0.61-19.47-7.11c-5.3-4.95-7.99-12.08-7.99-21.19V466.56l0.23-0.55l22.02-53.7
			c0.63-1.54,2.39-2.28,3.93-1.64c1.54,0.63,2.28,2.39,1.64,3.93l-21.79,53.15v185.88c0,7.35,2.03,12.98,6.04,16.75
			c2.66,2.49,6.14,4.18,10.35,5.01c3.27,0.64,5.76,0.49,5.78,0.49l-0.01,0l0.41,6.01C575.92,681.9,575.52,681.92,574.86,681.92z"/>
	</g>
	<g>
		<g>
			<path class="st4" d="M483.25,440.9c-1.28,0-2.47-0.83-2.87-2.11l-16.42-52.48l0-186.94c0-9.11,2.69-16.23,7.99-21.19
				c8.38-7.82,20.12-7.11,20.62-7.07l-0.41,6.01l0.01,0c-0.02,0-2.51-0.15-5.78,0.49c-4.21,0.83-7.7,2.51-10.35,5.01
				c-4.01,3.77-6.04,9.4-6.04,16.75l0,186.02l16.14,51.61c0.5,1.59-0.39,3.28-1.98,3.78C483.85,440.86,483.55,440.9,483.25,440.9z"
				/>
		</g>
		<g>
			<path class="st4" d="M578.23,388.85c-1.66,0-3.01-1.35-3.01-3.01V199.36c0-7.37-2.05-13.01-6.08-16.78
				c-1.85-1.73-5.18-4-10.5-5.01c-3.18-0.6-5.57-0.46-5.59-0.46c-1.66,0.11-3.1-1.14-3.21-2.8c-0.11-1.66,1.14-3.1,2.8-3.21
				c0.5-0.03,12.24-0.74,20.62,7.07c5.3,4.95,7.99,12.08,7.99,21.19v186.48C581.24,387.51,579.89,388.85,578.23,388.85z"/>
		</g>
	</g>
	<g>
		<path class="st4" d="M615.98,1020.22l0.01-0.02l-5.5-2.46c0.23-0.52,2.46-5.19,9.05-9.84c3.81-2.69,8.34-4.82,13.45-6.34
			c6.28-1.87,13.47-2.82,21.39-2.82h116.03c1.66,0,3.01,1.35,3.01,3.01s-1.35,3.01-3.01,3.01H654.38c-7.18,0-13.69,0.83-19.32,2.46
			c-4.45,1.29-8.38,3.08-11.66,5.33C617.85,1016.35,616,1020.19,615.98,1020.22z"/>
	</g>
	<g>
		
			<rect x="644.34" y="1045.62" transform="matrix(6.123234e-17 -1 1 6.123234e-17 -388.809 1723.6234)" class="st2" width="46.12" height="21.18"/>
	</g>
	<g>
		<rect x="618.55" y="1035.5" class="st2" width="38.27" height="15.37"/>
	</g>
	<g>
		<rect x="534.16" y="1035.5" class="st2" width="38.27" height="15.37"/>
	</g>
	<g>
		<rect x="572.42" y="1027.81" class="st5" width="46.12" height="15.37"/>
	</g>
	<g>
		
			<rect x="661.42" y="992.23" transform="matrix(6.123234e-17 -1 1 6.123234e-17 -311.423 1680.3881)" class="st6" width="46.12" height="7.34"/>
	</g>
	<g>
		
			<rect x="669.11" y="992.23" transform="matrix(6.123234e-17 -1 1 6.123234e-17 -303.7356 1688.0754)" class="st5" width="46.12" height="7.34"/>
	</g>
	<g>
		<rect x="473.68" y="1035.5" class="st2" width="38.27" height="15.37"/>
	</g>
	<g>
		<rect x="389.29" y="1035.5" class="st2" width="38.27" height="15.37"/>
	</g>
	<g>
		<rect x="427.56" y="1027.81" class="st6" width="46.12" height="15.37"/>
	</g>
	<g>
		<rect x="511.95" y="1032.94" class="st2" width="22.21" height="20.5"/>
	</g>
	<g>
		
			<rect x="355.64" y="1045.62" transform="matrix(4.478024e-11 -1 1 4.478024e-11 -677.5153 1434.917)" class="st2" width="46.12" height="21.18"/>
	</g>
	<g>
		
			<rect x="157.13" y="991.3" transform="matrix(-1 -6.013336e-11 6.013336e-11 -1 329.478 2003.0995)" class="st2" width="15.22" height="20.5"/>
	</g>
	<g>
		
			<rect x="224.61" y="1063.9" transform="matrix(-1 -3.380686e-11 3.380686e-11 -1 469.7203 2143.1821)" class="st2" width="20.5" height="15.37"/>
	</g>
	<g>
		
			<rect x="157.13" y="847.8" transform="matrix(-1 -6.061164e-11 6.061164e-11 -1 329.478 1716.1014)" class="st2" width="15.22" height="20.5"/>
	</g>
	<g>
		
			<rect x="157.13" y="704.3" transform="matrix(-1 -6.061164e-11 6.061164e-11 -1 329.478 1429.1034)" class="st2" width="15.22" height="20.5"/>
	</g>
	<g>
		<rect x="800.81" y="1063.9" class="st2" width="20.5" height="15.37"/>
	</g>
	<g>
		
			<rect x="172.35" y="596.41" transform="matrix(-1 -4.484869e-11 4.484869e-11 -1 366.048 1214.176)" class="st2" width="21.35" height="21.35"/>
	</g>
	<g>
		<path class="st2" d="M678.29,1079.57H367.82v-44.37h310.48V1079.57z M368.4,1078.98h309.3v-43.19H368.4V1078.98z"/>
	</g>
	<g>
		<g>
			<g>
				<rect x="499.98" y="426.03" class="st5" width="22.62" height="7.69"/>
			</g>
			<g>
				<rect x="499.98" y="418.34" class="st6" width="22.62" height="7.69"/>
			</g>
		</g>
		<g>
			<g>
				
					<rect x="522.6" y="418.34" transform="matrix(-1 -1.224647e-16 1.224647e-16 -1 1067.8176 844.3638)" class="st5" width="22.62" height="7.69"/>
			</g>
			<g>
				
					<rect x="522.6" y="426.03" transform="matrix(-1 -1.224647e-16 1.224647e-16 -1 1067.8176 859.7387)" class="st6" width="22.62" height="7.69"/>
			</g>
		</g>
	</g>
	<g>
		<rect x="157.01" y="734.54" class="st1" width="51.25" height="51.25"/>
		<path class="st2" d="M208.56,786.09h-51.85v-51.85h51.85V786.09z M157.31,785.49h50.65v-50.65h-50.65V785.49z"/>
	</g>
	<g>
		<rect x="157.01" y="785.79" class="st1" width="51.25" height="51.25"/>
		<path class="st2" d="M208.56,837.34h-51.85v-51.85h51.85V837.34z M157.31,836.74h50.65v-50.65h-50.65V836.74z"/>
	</g>
	<g>
		<rect x="157.01" y="878.5" class="st1" width="51.25" height="51.25"/>
		<path class="st2" d="M208.56,930.05h-51.85V878.2h51.85V930.05z M157.31,929.45h50.65V878.8h-50.65V929.45z"/>
	</g>
	<g>
		<rect x="157.01" y="929.75" class="st1" width="51.25" height="51.25"/>
		<path class="st2" d="M208.56,981.3h-51.85v-51.85h51.85V981.3z M157.31,980.7h50.65v-50.65h-50.65V980.7z"/>
	</g>
	<g>
		
			<rect x="255.36" y="1027.81" transform="matrix(5.985885e-11 -1 1 5.985885e-11 -772.4515 1334.4211)" class="st1" width="51.25" height="51.25"/>
		<path class="st2" d="M306.91,1079.36h-51.85v-51.85h51.85V1079.36z M255.66,1078.76h50.65v-50.65h-50.65V1078.76z"/>
	</g>
	<g>
		
			<rect x="306.61" y="1027.81" transform="matrix(5.984108e-11 -1 1 5.984108e-11 -721.2018 1385.6708)" class="st1" width="51.25" height="51.25"/>
		<path class="st2" d="M358.16,1079.36h-51.85v-51.85h51.85V1079.36z M306.91,1078.76h50.65v-50.65h-50.65V1078.76z"/>
	</g>
	<g>
		
			<rect x="255.36" y="699.77" transform="matrix(5.987661e-11 -1 1 5.987661e-11 -444.4078 1006.3776)" class="st1" width="51.25" height="51.25"/>
		<path class="st2" d="M306.91,751.32h-51.85v-51.85h51.85V751.32z M255.66,750.72h50.65v-50.65h-50.65V750.72z"/>
	</g>
	<g>
		
			<rect x="306.61" y="699.77" transform="matrix(5.989437e-11 -1 1 5.989437e-11 -393.1582 1057.6272)" class="st1" width="51.25" height="51.25"/>
		<path class="st2" d="M358.16,751.32h-51.85v-51.85h51.85V751.32z M306.91,750.72h50.65v-50.65h-50.65V750.72z"/>
	</g>
	<g>
		<g>
			
				<rect x="420.02" y="699.77" transform="matrix(5.984108e-11 -1 1 5.984108e-11 -279.7526 1171.0327)" class="st1" width="51.25" height="51.25"/>
			<path class="st2" d="M471.57,751.32h-51.85v-51.85h51.85V751.32z M420.32,750.72h50.65v-50.65h-50.65V750.72z"/>
		</g>
		<g>
			
				<rect x="471.26" y="699.77" transform="matrix(5.991214e-11 -1 1 5.991214e-11 -228.503 1222.2825)" class="st1" width="51.25" height="51.25"/>
			<path class="st2" d="M522.82,751.32h-51.85v-51.85h51.85V751.32z M471.57,750.72h50.65v-50.65h-50.65V750.72z"/>
		</g>
		<g>
			
				<rect x="522.69" y="699.77" transform="matrix(5.980556e-11 -1 1 5.980556e-11 -177.0825 1273.7029)" class="st1" width="51.25" height="51.25"/>
			<path class="st2" d="M574.24,751.32h-51.85v-51.85h51.85V751.32z M522.99,750.72h50.65v-50.65h-50.65V750.72z"/>
		</g>
		<g>
			
				<rect x="573.93" y="699.77" transform="matrix(5.980556e-11 -1 1 5.980556e-11 -125.8328 1324.9525)" class="st1" width="51.25" height="51.25"/>
			<path class="st2" d="M625.49,751.32h-51.85v-51.85h51.85V751.32z M574.24,750.72h50.65v-50.65h-50.65V750.72z"/>
		</g>
	</g>
	<g>
		
			<rect x="688.15" y="699.77" transform="matrix(5.984108e-11 -1 1 5.984108e-11 -11.6142 1439.1711)" class="st1" width="51.25" height="51.25"/>
		<path class="st2" d="M739.7,751.32h-51.85v-51.85h51.85V751.32z M688.45,750.72h50.65v-50.65h-50.65V750.72z"/>
	</g>
	<g>
		
			<rect x="739.4" y="699.77" transform="matrix(5.994678e-11 -1 1 5.994678e-11 39.6355 1490.4209)" class="st1" width="51.25" height="51.25"/>
		<path class="st2" d="M790.95,751.32H739.1v-51.85h51.85V751.32z M739.7,750.72h50.65v-50.65H739.7V750.72z"/>
	</g>
	<g>
		
			<rect x="361.45" y="594.97" transform="matrix(5.984108e-11 -1 1 5.984108e-11 -233.5148 1007.6735)" class="st1" width="51.25" height="51.25"/>
		<path class="st2" d="M413.01,646.52h-51.85v-51.85h51.85V646.52z M361.76,645.92h50.65v-50.65h-50.65V645.92z"/>
	</g>
	<g>
		
			<rect x="412.7" y="594.97" transform="matrix(5.996454e-11 -1 1 5.996454e-11 -182.2652 1058.9231)" class="st1" width="51.25" height="51.25"/>
		<path class="st2" d="M464.26,646.52H412.4v-51.85h51.85V646.52z M413.01,645.92h50.65v-50.65h-50.65V645.92z"/>
	</g>
	<g>
		
			<rect x="258.96" y="594.97" transform="matrix(5.984108e-11 -1 1 5.984108e-11 -336.0141 905.1742)" class="st1" width="51.25" height="51.25"/>
		<path class="st2" d="M310.51,646.52h-51.85v-51.85h51.85V646.52z M259.26,645.92h50.65v-50.65h-50.65V645.92z"/>
	</g>
	<g>
		
			<rect x="310.2" y="594.97" transform="matrix(5.987661e-11 -1 1 5.987661e-11 -284.7645 956.4238)" class="st1" width="51.25" height="51.25"/>
		<path class="st2" d="M361.76,646.52H309.9v-51.85h51.85V646.52z M310.51,645.92h50.65v-50.65h-50.65V645.92z"/>
	</g>
	<g>
		
			<rect x="684.37" y="594.97" transform="matrix(5.991214e-11 -1 1 5.991214e-11 89.4011 1330.5894)" class="st1" width="51.25" height="51.25"/>
		<path class="st2" d="M735.92,646.52h-51.85v-51.85h51.85V646.52z M684.67,645.92h50.65v-50.65h-50.65V645.92z"/>
	</g>
	<g>
		
			<rect x="735.62" y="594.97" transform="matrix(5.987661e-11 -1 1 5.987661e-11 140.6507 1381.839)" class="st1" width="51.25" height="51.25"/>
		<path class="st2" d="M787.17,646.52h-51.85v-51.85h51.85V646.52z M735.92,645.92h50.65v-50.65h-50.65V645.92z"/>
	</g>
	<g>
		
			<rect x="581.87" y="594.97" transform="matrix(5.998230e-11 -1 1 5.998230e-11 -13.0982 1228.0901)" class="st1" width="51.25" height="51.25"/>
		<path class="st2" d="M633.42,646.52h-51.85v-51.85h51.85V646.52z M582.17,645.92h50.65v-50.65h-50.65V645.92z"/>
	</g>
	<g>
		
			<rect x="633.12" y="594.97" transform="matrix(5.980556e-11 -1 1 5.980556e-11 38.1514 1279.3397)" class="st1" width="51.25" height="51.25"/>
		<path class="st2" d="M684.67,646.52h-51.85v-51.85h51.85V646.52z M633.42,645.92h50.65v-50.65h-50.65V645.92z"/>
	</g>
	<g>
		
			<rect x="471.35" y="955.38" transform="matrix(5.987661e-11 -1 1 5.987661e-11 -484.0271 1477.9774)" class="st1" width="51.25" height="51.25"/>
		<path class="st2" d="M522.9,1006.93h-51.85v-51.85h51.85V1006.93z M471.65,1006.33h50.65v-50.65h-50.65V1006.33z"/>
	</g>
	<g>
		
			<rect x="522.6" y="955.38" transform="matrix(5.994678e-11 -1 1 5.994678e-11 -432.7774 1529.2271)" class="st1" width="51.25" height="51.25"/>
		<path class="st2" d="M574.15,1006.93H522.3v-51.85h51.85V1006.93z M522.9,1006.33h50.65v-50.65H522.9V1006.33z"/>
	</g>
	<g>
		
			<rect x="471.35" y="903.91" transform="matrix(5.987661e-11 -1 1 5.987661e-11 -432.5638 1426.514)" class="st1" width="51.25" height="51.25"/>
		<path class="st2" d="M522.9,955.47h-51.85v-51.85h51.85V955.47z M471.65,954.86h50.65v-50.65h-50.65V954.86z"/>
	</g>
	<g>
		
			<rect x="522.6" y="903.91" transform="matrix(5.994678e-11 -1 1 5.994678e-11 -381.3141 1477.7637)" class="st1" width="51.25" height="51.25"/>
		<path class="st2" d="M574.15,955.47H522.3v-51.85h51.85V955.47z M522.9,954.86h50.65v-50.65H522.9V954.86z"/>
	</g>
	<g>
		
			<rect x="471.35" y="852.45" transform="matrix(5.987661e-11 -1 1 5.987661e-11 -381.1005 1375.0508)" class="st1" width="51.25" height="51.25"/>
		<path class="st2" d="M522.9,904h-51.85v-51.85h51.85V904z M471.65,903.4h50.65v-50.65h-50.65V903.4z"/>
	</g>
	<g>
		
			<rect x="522.6" y="852.45" transform="matrix(5.994678e-11 -1 1 5.994678e-11 -329.8509 1426.3004)" class="st1" width="51.25" height="51.25"/>
		<path class="st2" d="M574.15,904H522.3v-51.85h51.85V904z M522.9,903.4h50.65v-50.65H522.9V903.4z"/>
	</g>
	<g>
		
			<rect x="315.87" y="906.99" transform="matrix(0.2586 -0.966 0.966 0.2586 -647.7169 1021.2972)" class="st1" width="51.25" height="51.25"/>
		<path class="st2" d="M359.83,964.37l-0.29-0.08l-49.8-13.33l13.41-50.09l0.29,0.08l49.8,13.33L359.83,964.37z M310.48,950.53
			l48.92,13.1l13.1-48.92l-48.92-13.1L310.48,950.53z"/>
	</g>
	<g>
		
			<rect x="329.17" y="857.28" transform="matrix(0.2586 -0.966 0.966 0.2586 -589.8283 997.2981)" class="st1" width="51.25" height="51.25"/>
		<path class="st2" d="M373.14,914.66l-0.29-0.08l-49.8-13.33l0.08-0.29l13.33-49.8l0.29,0.08l49.8,13.33L373.14,914.66z
			 M323.79,900.82l48.92,13.1l13.1-48.92l-48.92-13.1L323.79,900.82z"/>
	</g>
	<g>
		
			<rect x="342.48" y="807.57" transform="matrix(0.2586 -0.966 0.966 0.2586 -531.9398 973.299)" class="st1" width="51.25" height="51.25"/>
		<path class="st2" d="M386.45,864.94l-0.29-0.08l-49.8-13.33l13.41-50.09l0.29,0.08l49.8,13.33L386.45,864.94z M337.1,851.11
			l48.92,13.1l13.1-48.92l-48.92-13.1L337.1,851.11z"/>
	</g>
	<g>
		
			<rect x="355.79" y="757.86" transform="matrix(0.2586 -0.966 0.966 0.2586 -474.0512 949.2999)" class="st1" width="51.25" height="51.25"/>
		<path class="st2" d="M399.76,815.23l-0.29-0.08l-49.8-13.33l13.41-50.09l0.29,0.08l49.8,13.33L399.76,815.23z M350.41,801.39
			l48.92,13.1l13.1-48.92l-48.92-13.1L350.41,801.39z"/>
	</g>
	<g>
		
			<rect x="678.71" y="906.99" transform="matrix(-0.2586 -0.966 0.966 -0.2586 -14.4007 1854.1864)" class="st1" width="51.25" height="51.25"/>
		<path class="st2" d="M686,964.37l-0.08-0.29l-13.33-49.8l0.29-0.08l49.8-13.33l0.08,0.29l13.33,49.8l-0.29,0.08L686,964.37z
			 M673.32,914.71l13.1,48.92l48.92-13.1l-13.1-48.92L673.32,914.71z"/>
	</g>
	<g>
		
			<rect x="665.4" y="857.28" transform="matrix(-0.2586 -0.966 0.966 -0.2586 16.869 1778.7606)" class="st1" width="51.25" height="51.25"/>
		<path class="st2" d="M672.69,914.66l-0.08-0.29l-13.33-49.8l0.29-0.08l49.8-13.33l0.08,0.29l13.33,49.8l-0.29,0.08L672.69,914.66z
			 M660.01,864.99l13.1,48.92l48.92-13.1l-13.1-48.92L660.01,864.99z"/>
	</g>
	<g>
		
			<rect x="652.09" y="807.57" transform="matrix(-0.2586 -0.966 0.966 -0.2586 48.1386 1703.3348)" class="st1" width="51.25" height="51.25"/>
		<path class="st2" d="M659.38,864.94l-0.08-0.29l-13.33-49.8l0.29-0.08l49.8-13.33l0.08,0.29l13.33,49.8l-0.29,0.08L659.38,864.94z
			 M646.7,815.28l13.1,48.92l48.92-13.1l-13.1-48.92L646.7,815.28z"/>
	</g>
	<g>
		
			<rect x="638.78" y="757.86" transform="matrix(-0.2586 -0.966 0.966 -0.2586 79.4082 1627.9091)" class="st1" width="51.25" height="51.25"/>
		<path class="st2" d="M646.07,815.23l-0.08-0.29l-13.33-49.8l0.29-0.08l49.8-13.33l0.08,0.29l13.33,49.8l-0.29,0.08L646.07,815.23z
			 M633.4,765.57l13.1,48.92l48.92-13.1l-13.1-48.92L633.4,765.57z"/>
	</g>
	<g>
		
			<rect x="688.15" y="1027.81" transform="matrix(5.998230e-11 -1 1 5.998230e-11 -339.6578 1767.2148)" class="st1" width="51.25" height="51.25"/>
		<path class="st2" d="M739.7,1079.36h-51.85v-51.85h51.85V1079.36z M688.45,1078.76h50.65v-50.65h-50.65V1078.76z"/>
	</g>
	<g>
		
			<rect x="739.4" y="1027.81" transform="matrix(5.991214e-11 -1 1 5.991214e-11 -288.4082 1818.4645)" class="st1" width="51.25" height="51.25"/>
		<path class="st2" d="M790.95,1079.36H739.1v-51.85h51.85V1079.36z M739.7,1078.76h50.65v-50.65H739.7V1078.76z"/>
	</g>
	<g>
		
			<rect x="837.3" y="929.75" transform="matrix(-1 3.267350e-07 -3.267350e-07 -1 1725.8495 1910.7545)" class="st1" width="51.25" height="51.25"/>
		<path class="st2" d="M888.85,981.3H837v-51.85h51.85V981.3z M837.6,980.7h50.65v-50.65H837.6V980.7z"/>
	</g>
	<g>
		
			<rect x="837.3" y="878.5" transform="matrix(-1 3.267349e-07 -3.267349e-07 -1 1725.8495 1808.2552)" class="st1" width="51.25" height="51.25"/>
		<path class="st2" d="M888.85,930.05H837V878.2h51.85V930.05z M837.6,929.45h50.65V878.8H837.6V929.45z"/>
	</g>
	<g>
		
			<rect x="837.3" y="786.35" transform="matrix(-1 3.267351e-07 -3.267351e-07 -1 1725.8495 1623.947)" class="st1" width="51.25" height="51.25"/>
		<path class="st2" d="M888.85,837.9H837v-51.85h51.85V837.9z M837.6,837.3h50.65v-50.65H837.6V837.3z"/>
	</g>
	<g>
		
			<rect x="837.3" y="735.1" transform="matrix(-1 3.267349e-07 -3.267349e-07 -1 1725.8495 1521.4478)" class="st1" width="51.25" height="51.25"/>
		<path class="st2" d="M888.85,786.65H837V734.8h51.85V786.65z M837.6,786.05h50.65V735.4H837.6V786.05z"/>
	</g>
	<g>
		<rect x="157.4" y="1027.81" class="st7" width="51.25" height="51.25"/>
		<path class="st2" d="M208.95,1079.36H157.1v-51.85h51.85V1079.36z M157.7,1078.76h50.65v-50.65H157.7V1078.76z"/>
	</g>
	<g>
		<rect x="837.3" y="1027.81" class="st7" width="51.25" height="51.25"/>
		<path class="st2" d="M888.85,1079.36H837v-51.85h51.85V1079.36z M837.6,1078.76h50.65v-50.65H837.6V1078.76z"/>
	</g>
	<g>
		<g>
			
				<rect x="272.14" y="759.94" transform="matrix(0.966 0.2586 -0.2586 0.966 234.8494 -47.8382)" class="st2" width="54.22" height="217.56"/>
		</g>
		<g>
			
				<rect x="719.55" y="759.94" transform="matrix(-0.966 0.2586 -0.2586 -0.966 1692.5977 1514.7775)" class="st2" width="54.22" height="217.56"/>
		</g>
	</g>
	<g>
		<g>
			<ellipse class="st2" cx="378.08" cy="714.55" rx="17.22" ry="10.84"/>
		</g>
		<g>
			<ellipse class="st2" cx="667.84" cy="714.55" rx="17.22" ry="10.84"/>
		</g>
	</g>
	<g>
		
			<rect x="837.3" y="642.75" transform="matrix(-1 3.267350e-07 -3.267350e-07 -1 1725.8495 1336.7584)" class="st1" width="51.25" height="51.25"/>
		<path class="st2" d="M888.85,694.31H837v-51.85h51.85V694.31z M837.6,693.7h50.65v-50.65H837.6V693.7z"/>
	</g>
	<g>
		
			<rect x="157.01" y="642.75" transform="matrix(-1 3.267350e-07 -3.267350e-07 -1 365.2666 1336.7587)" class="st1" width="51.25" height="51.25"/>
		<path class="st2" d="M208.56,694.31h-51.85v-51.85h51.85L208.56,694.31z M157.31,693.7h50.65l0-50.65h-50.65V693.7z"/>
	</g>
	<g>
		<rect x="470.5" y="755.34" class="st8" width="104.21" height="8.54"/>
		<path class="st2" d="M575.01,764.18H470.19v-9.14h104.81V764.18z M470.8,763.58H574.4v-7.94H470.8V763.58z"/>
	</g>
	<g>
		<rect x="522.22" y="1003.36" class="st2" width="0.59" height="38.58"/>
	</g>
	<g>
		<rect x="688.2" y="964" class="st2" width="0.61" height="63.81"/>
	</g>
	<g>
		<rect x="522.39" y="212.25" class="st2" width="0.59" height="487.52"/>
	</g>
</g>
</svg>
